<svg width="27" height="27" viewBox="0 0 27 27" fill="none" xmlns="http://www.w3.org/2000/svg">
<path d="M20.5 14C19.935 14.002 19.3727 14.0781 18.8275 14.2262L19.405 9.3076H20.8076C20.9402 9.3076 21.0674 9.25492 21.1612 9.16115C21.2549 9.06739 21.3076 8.94021 21.3076 8.8076V5.1152C21.3076 4.98259 21.2549 4.85541 21.1612 4.76165C21.0674 4.66788 20.9402 4.6152 20.8076 4.6152H19.3L17.58 0.3145C17.5429 0.221593 17.4787 0.141957 17.3959 0.0858898C17.313 0.0298229 17.2152 -9.65069e-05 17.1152 2.3386e-07H4.1924C4.09242 -1.64755e-05 3.99473 0.0299403 3.91195 0.0860021C3.82917 0.142064 3.76509 0.221656 3.728 0.3145L2.008 4.6152H0.5C0.367392 4.6152 0.240215 4.66788 0.146447 4.76165C0.0526785 4.85541 0 4.98259 0 5.1152V8.8076C0 8.94021 0.0526785 9.06739 0.146447 9.16115C0.240215 9.25492 0.367392 9.3076 0.5 9.3076H1.905L3.6934 24.5586C3.70775 24.6802 3.76625 24.7924 3.85778 24.8737C3.94932 24.9551 4.06753 25 4.19 25H15.8206C16.565 25.774 17.4896 26.3515 18.5118 26.6807C19.534 27.0098 20.6219 27.0805 21.6781 26.8863C22.7343 26.6921 23.7258 26.2391 24.5641 25.5679C25.4024 24.8966 26.0611 24.028 26.4815 23.0398C26.9019 22.0517 27.0708 20.9747 26.973 19.9052C26.8752 18.8358 26.5139 17.8073 25.9213 16.9117C25.3287 16.0161 24.5233 15.2814 23.5772 14.7733C22.6312 14.2651 21.5739 13.9995 20.5 14ZM4.5308 1H16.7769L18.2227 4.6152H3.085L4.5308 1ZM1 8.3076V5.6152H20.3076V8.3076H1ZM4.6348 24L2.9121 9.31H18.3979L17.776 14.6068C16.9326 14.9938 16.1821 15.5575 15.5755 16.2597C14.9689 16.962 14.5203 17.7864 14.2601 18.6771C13.9999 19.5678 13.9341 20.504 14.0672 21.4224C14.2003 22.3408 14.5292 23.2198 15.0316 24H4.6348ZM20.5 26C19.4122 26 18.3488 25.6774 17.4444 25.0731C16.5399 24.4687 15.8349 23.6098 15.4187 22.6048C15.0024 21.5998 14.8935 20.4939 15.1057 19.427C15.3179 18.3601 15.8417 17.3801 16.6109 16.6109C17.3801 15.8417 18.3601 15.3179 19.427 15.1057C20.4939 14.8935 21.5998 15.0024 22.6048 15.4187C23.6098 15.8349 24.4687 16.5399 25.0731 17.4444C25.6774 18.3488 26 19.4122 26 20.5C25.9983 21.9582 25.4182 23.3561 24.3872 24.3872C23.3561 25.4182 21.9582 25.9983 20.5 26V26Z" fill="black"/>
<path d="M21.5 18.793V16C21.5 15.8674 21.4473 15.7402 21.3536 15.6464C21.2598 15.5527 21.1326 15.5 21 15.5C20.8674 15.5 20.7402 15.5527 20.6464 15.6464C20.5527 15.7402 20.5 15.8674 20.5 16V19C20.5 19.0657 20.5129 19.1307 20.538 19.1913C20.5632 19.252 20.6 19.3071 20.6465 19.3535L22.6465 21.3535C22.7408 21.4446 22.8671 21.495 22.9982 21.4938C23.1293 21.4927 23.2547 21.4401 23.3474 21.3474C23.4401 21.2547 23.4927 21.1293 23.4938 20.9982C23.495 20.8671 23.4446 20.7408 23.3535 20.6465L21.5 18.793Z" fill="black"/>
</svg>
