<svg width="40" height="80" viewBox="0 0 40 80" fill="none" xmlns="http://www.w3.org/2000/svg">
<path d="M39.9904 39.6944C39.9211 38.7032 39.5289 37.7644 38.8765 37.0278L7.58065 1.4734C7.19894 1.03924 6.73733 0.686211 6.22218 0.434475C5.70702 0.182739 5.14842 0.0372534 4.57826 0.00626578C4.0081 -0.0247218 3.43756 0.0594458 2.89921 0.253925C2.36086 0.448405 1.86525 0.74936 1.44068 1.13969C1.01611 1.53003 0.67089 2.00206 0.424745 2.52881C0.178599 3.05557 0.0363439 3.62678 0.00610258 4.20975C-0.0241387 4.79272 0.0582264 5.37607 0.248494 5.92649C0.438762 6.47691 0.733205 6.98359 1.11501 7.41766L29.8029 40L1.11501 72.5823C0.733205 73.0164 0.438762 73.523 0.248494 74.0735C0.0582264 74.6239 -0.0241387 75.2072 0.00610258 75.7902C0.0363439 76.3732 0.178599 76.9444 0.424745 77.4711C0.67089 77.9979 1.01611 78.47 1.44068 78.8603C1.86525 79.2506 2.36086 79.5517 2.89921 79.7461C3.43756 79.9406 4.0081 80.0247 4.57826 79.9937C5.14842 79.9627 5.70702 79.8172 6.22218 79.5655C6.73733 79.3137 7.19894 78.9607 7.58065 78.5266L38.8765 42.9721C39.2676 42.5301 39.5678 42.0121 39.7592 41.449C39.9505 40.8859 40.0292 40.2892 39.9904 39.6944Z" fill="#FF3253"/>
</svg>
