<svg width="40" height="80" viewBox="0 0 40 80" fill="none" xmlns="http://www.w3.org/2000/svg">
<path d="M0.00963558 40.3056C0.0789562 41.2967 0.471126 42.2356 1.12351 42.9722L32.4194 78.5266C32.8011 78.9608 33.2627 79.3138 33.7778 79.5655C34.293 79.8173 34.8516 79.9627 35.4217 79.9937C35.9919 80.0247 36.5624 79.9406 37.1008 79.7461C37.6391 79.5516 38.1348 79.2506 38.5593 78.8603C38.9839 78.47 39.3291 77.9979 39.5753 77.4712C39.8214 76.9444 39.9637 76.3732 39.9939 75.7903C40.0241 75.2073 39.9418 74.6239 39.7515 74.0735C39.5612 73.5231 39.2668 73.0164 38.885 72.5823L10.1971 40L38.885 7.41771C39.2668 6.98364 39.5612 6.47697 39.7515 5.92654C39.9418 5.37612 40.0241 4.79277 39.9939 4.2098C39.9637 3.62683 39.8214 3.05562 39.5753 2.52886C39.3291 2.00211 38.9839 1.53003 38.5593 1.13969C38.1348 0.749359 37.6391 0.448349 37.1008 0.253868C36.5624 0.0593869 35.9919 -0.0247272 35.4217 0.00626333C34.8516 0.0372539 34.293 0.182785 33.7778 0.434524C33.2627 0.686263 32.8011 1.03929 32.4194 1.47345L1.12351 37.0279C0.732368 37.4699 0.432186 37.9879 0.240829 38.551C0.0494726 39.1141 -0.0291522 39.7108 0.00963558 40.3056Z" fill="#FF3253"/>
</svg>
