<svg width="34" height="24" viewBox="0 0 34 24" fill="none" xmlns="http://www.w3.org/2000/svg">
<path d="M22.8863 0.434673C22.7787 0.305685 22.6454 0.200526 22.4949 0.125898C22.3444 0.0512711 22.18 0.00881347 22.0121 0.00123231C21.8443 -0.00634885 21.6767 0.0211128 21.5201 0.0818665C21.3634 0.14262 21.2212 0.235333 21.1024 0.354094C20.9836 0.472855 20.8908 0.615059 20.8301 0.771639C20.7693 0.92822 20.7418 1.09574 20.7494 1.26352C20.757 1.43131 20.7995 1.59567 20.8741 1.74613C20.9488 1.89659 21.054 2.02986 21.183 2.13742L29.8733 10.8351H1.14851C0.838426 10.8515 0.546463 10.9862 0.332787 11.2115C0.11911 11.4367 0 11.7353 0 12.0457C0 12.3561 0.11911 12.6547 0.332787 12.88C0.546463 13.1052 0.838426 13.2399 1.14851 13.2564H29.8733L21.1694 21.9438C20.9503 22.1732 20.828 22.4781 20.828 22.7952C20.828 23.1123 20.9503 23.4172 21.1694 23.6466C21.2811 23.7586 21.4138 23.8475 21.56 23.9081C21.7061 23.9688 21.8628 24 22.021 24C22.1793 24 22.3359 23.9688 22.4821 23.9081C22.6282 23.8475 22.761 23.7586 22.8727 23.6466L33.6377 12.8852C33.7523 12.7749 33.8434 12.6427 33.9057 12.4964C33.9679 12.3501 34 12.1928 34 12.0338C34 11.8748 33.9679 11.7175 33.9057 11.5712C33.8434 11.4249 33.7523 11.2927 33.6377 11.1824L22.8863 0.434673Z" fill="white"/>
</svg>
