<svg width="40" height="20" viewBox="0 0 40 20" fill="none" xmlns="http://www.w3.org/2000/svg">
<path d="M19.8472 0.00481519C19.3516 0.0394755 18.8822 0.235561 18.5139 0.561753L0.736698 16.2097C0.519621 16.4005 0.343106 16.6313 0.217237 16.8889C0.0913693 17.1465 0.0186266 17.4258 0.00313279 17.7109C-0.012361 17.9959 0.0297228 18.2812 0.126963 18.5504C0.224202 18.8196 0.37468 19.0674 0.569847 19.2797C0.765014 19.4919 1.00103 19.6646 1.26441 19.7876C1.52778 19.9107 1.81339 19.9818 2.10487 19.9969C2.39636 20.0121 2.68803 19.9709 2.96325 19.8758C3.23846 19.7806 3.4918 19.6334 3.70883 19.4425L20 5.09857L36.2911 19.4425C36.5082 19.6334 36.7615 19.7806 37.0367 19.8758C37.3119 19.9709 37.6036 20.0121 37.8951 19.9969C38.1866 19.9818 38.4722 19.9107 38.7356 19.7876C38.9989 19.6646 39.235 19.4919 39.4302 19.2797C39.6253 19.0674 39.7758 18.8196 39.8731 18.5504C39.9703 18.2812 40.0124 17.9959 39.9969 17.7109C39.9814 17.4258 39.9086 17.1465 39.7827 16.8889C39.6569 16.6313 39.4804 16.4005 39.2633 16.2097L21.4861 0.561753C21.265 0.366183 21.006 0.21609 20.7245 0.120412C20.4429 0.0247336 20.1446 -0.0145787 19.8472 0.00481519Z" fill="#FF3253"/>
</svg>
