<svg width="61" height="50" viewBox="0 0 61 50" fill="none" xmlns="http://www.w3.org/2000/svg">
<path d="M61 4.89591C61 4.82845 61 4.70316 61 4.70316C60.6854 0.954125 49.5706 0 43.6605 0C37.7504 0 26.6356 1.01195 26.321 4.70316V4.77063V4.83809V4.90555C26.321 5.0983 26.3878 5.34888 26.445 5.54164L28.4563 13.9842C25.7586 13.3481 22.8036 13.5987 21.2975 15.7672C21.2307 15.8346 20.859 16.914 20.859 16.914C19.7246 15.0732 17.2748 13.8011 15.4541 13.483C15.3874 13.483 15.3874 13.483 15.3302 13.483C15.273 13.483 15.2634 13.483 15.2062 13.483C13.824 13.2903 12.1273 13.483 10.7451 14.0517C8.98156 14.7456 7.91393 15.9599 7.73281 17.3574C7.73281 17.4248 7.73281 17.4827 7.73281 17.5501L7.79954 18.5621C5.731 18.7548 3.90078 19.4487 2.46138 20.4703C0.764612 21.7425 -0.112371 23.3905 0.0115503 25.106C0.0782773 26.3782 0.64069 27.5829 1.70832 28.537C3.33837 30.0598 5.92165 30.8886 8.67652 30.9464C9.11502 32.4692 9.9348 33.4907 12.0033 33.8088L12.2512 33.8763C12.499 33.9437 12.7564 33.9437 13.0042 33.9437C13.5095 33.9437 14.0719 33.8763 14.5771 33.751C14.5104 35.3412 15.1395 36.6712 16.9602 37.9433L17.208 38.0686C18.3424 38.83 19.2766 39.148 20.2203 39.148C20.7255 39.148 21.2212 39.0227 21.6692 38.83C21.7931 39.5914 22.1077 40.3527 22.4223 40.9214L22.5462 41.1141C23.4899 42.7043 24.5575 43.2729 25.8158 43.2729C26.1971 43.2729 26.5689 43.2055 26.9502 43.1477C27.9511 46.0679 29.7813 48.4194 31.9166 49.4314C32.7364 49.8169 33.5466 50 34.2997 50C34.8049 50 35.2434 49.9325 35.6819 49.7494C37.3119 49.1808 38.513 47.7159 39.0087 45.5571C39.4472 43.6488 39.3233 41.49 38.6941 39.3312L39.1326 39.2059C39.1993 39.2059 39.2565 39.1384 39.3233 39.1384C40.0763 38.6951 40.6387 37.9337 40.9533 37.047C41.8303 37.1145 42.7168 37.1723 43.651 37.1723C49.4944 37.1723 55.3377 35.5821 55.5856 32.4692C55.5856 32.4017 55.5856 32.3439 55.5856 32.2764V27.3227L60.8093 5.65729C60.8856 5.46453 61 4.83809 61 4.89591ZM43.6605 1.85042C53.7077 1.85042 58.9887 3.88396 59.1126 4.83809L59.0459 5.08867C58.4167 6.04279 53.2025 7.88358 43.651 7.88358C34.0995 7.88358 28.8853 6.04279 28.2561 5.08867L28.1894 4.83809C28.3324 3.88396 33.6133 1.85042 43.6605 1.85042ZM28.8376 7.56554C32.5457 9.21357 39.39 9.72436 43.6605 9.72436C47.931 9.72436 54.7753 9.21357 58.4834 7.56554L53.8983 27.0625C53.8983 27.1299 53.8983 27.1877 53.8983 27.2552C53.8983 28.4599 49.8757 30.2429 43.7844 30.2429C42.4022 30.2429 41.0868 30.1176 39.7618 29.9923C38.6941 28.5274 37.0641 27.2648 35.3006 26.8215L35.9869 26.1854C36.0536 26.118 36.0632 26.1083 36.1108 26.0601C36.7972 25.0482 37.0546 23.7086 36.74 22.3111C36.3015 19.9595 34.4808 17.2899 32.3455 15.7672C32.2788 15.7672 32.2788 15.6997 32.2216 15.6997C32.1644 15.6997 32.1549 15.6322 32.0977 15.6322C31.5925 15.3142 31.0968 14.9961 30.5248 14.7456L28.8376 7.56554ZM3.0238 27.1877C2.51858 26.7444 1.95616 25.983 1.88944 25.0289C1.82271 23.9495 2.45185 22.8026 3.58621 21.9834C4.72057 21.1642 6.22669 20.586 7.92346 20.3932L8.36195 28.3924C8.36195 28.643 8.42868 28.8358 8.42868 29.0864C6.22669 28.9707 4.21535 28.2672 3.0238 27.1877ZM12.6325 32.0162L12.3846 31.9487C10.7546 31.6981 10.44 31.1874 10.2494 28.1997L9.68696 17.4634C9.87761 16.5093 10.9452 15.9406 11.5744 15.6804C12.642 15.2371 13.9575 15.1118 15.0251 15.2371C15.0918 15.2371 15.0918 15.2371 15.149 15.2371C15.2062 15.2371 15.2158 15.2371 15.273 15.2371C16.7219 15.4877 18.7237 16.5671 19.4196 17.9067C19.6102 18.2922 19.8771 19.362 19.8009 19.6897L15.8449 29.3466C15.5971 30.1079 15.3397 30.8115 15.1586 31.4379C15.0918 31.4379 14.9679 31.5054 14.9107 31.5632C14.4532 31.8909 13.3188 32.1415 12.6325 32.0162ZM18.2852 36.5266L18.0374 36.4013C16.026 35.0039 16.0928 33.857 17.4082 30.2429L22.8703 16.8369C24.0619 15.2467 27.0169 15.372 29.3428 16.3261H29.4095C29.972 16.5767 30.5439 16.8369 31.0396 17.155C31.1063 17.155 31.1063 17.2224 31.1635 17.2224C31.2207 17.2224 31.2302 17.2899 31.2874 17.2899C33.0509 18.4946 34.5571 20.7209 34.8716 22.6291C35.0623 23.5158 34.9384 24.2772 34.5571 24.9133L24.1858 34.8786C21.3642 37.4807 20.3537 37.9241 18.2852 36.5266ZM37.3215 45.2294C36.9402 46.6943 36.1871 47.7062 35.1862 48.0918C34.3092 48.4098 33.4227 48.0918 32.8031 47.8412C31.173 47.0123 29.6669 45.1137 28.8471 42.7621C28.9139 42.7621 28.9711 42.7621 29.0378 42.6947L37.0164 40.0251C37.5693 41.8658 37.6932 43.7066 37.3215 45.2294ZM38.513 37.5386L28.4658 40.8443C25.6347 41.6731 25.0151 41.6056 24.1953 40.1503L24.0714 39.9576C23.5662 39.0709 23.4422 38.1746 23.509 37.8662V37.7988C24.1381 37.3554 24.7673 36.7868 25.4536 36.2086L33.0509 28.9032C33.1463 28.8261 33.232 28.778 33.356 28.7105C33.5466 28.6334 33.804 28.5852 34.0614 28.5852C35.5675 28.4599 37.6456 30.0501 38.4558 31.5729L38.5225 31.6403C38.5225 31.7078 38.5893 31.7078 38.5893 31.7656C39.1517 32.7197 39.4663 33.9919 39.4091 35.1966C39.4091 35.4472 39.4091 35.7074 39.3423 36.0254C39.2661 36.5941 39.0754 37.2301 38.513 37.5386ZM43.7272 35.3797C42.9075 35.3797 42.1544 35.3123 41.3441 35.2544C41.3441 35.2544 41.3441 35.2544 41.3441 35.187C41.3441 34.1076 41.1535 33.0281 40.7817 32.0162C41.7254 32.0837 42.7263 32.1415 43.7368 32.1415C47.6927 32.1415 51.5915 31.3801 53.8507 29.9827V32.3342C53.8411 33.5389 49.8185 35.3797 43.7272 35.3797Z" fill="white"/>
</svg>
