<svg width="77" height="63" viewBox="0 0 77 63" fill="none" xmlns="http://www.w3.org/2000/svg">
<path d="M77 6.16885C77 6.08385 77 5.92598 77 5.92598C76.6029 1.2022 62.5728 0 55.1125 0C47.6522 0 33.622 1.27506 33.2249 5.92598V6.01099V6.09599V6.18099C33.2249 6.42386 33.3092 6.73959 33.3813 6.98246L35.9203 17.6201C32.515 16.8186 28.7848 17.1343 26.8837 19.8666C26.7994 19.9516 26.3302 21.3117 26.3302 21.3117C24.8983 18.9923 21.8059 17.3894 19.5076 16.9886C19.4234 16.9886 19.4234 16.9886 19.3512 16.9886C19.279 16.9886 19.267 16.9886 19.1948 16.9886C17.45 16.7458 15.3082 16.9886 13.5634 17.7051C11.3374 18.5794 9.98972 20.1095 9.76109 21.8703C9.76109 21.9553 9.76109 22.0281 9.76109 22.1131L9.84532 23.3882C7.23422 23.6311 4.92393 24.5054 3.10699 25.7926C0.965166 27.3955 -0.141846 29.4721 0.0145799 31.6336C0.0988091 33.2365 0.80874 34.7544 2.15641 35.9566C4.214 37.8753 7.47487 38.9196 10.9523 38.9925C11.5058 40.9111 12.5407 42.1983 15.1518 42.5991L15.4646 42.6841C15.7775 42.7691 16.1023 42.7691 16.4152 42.7691C17.0529 42.7691 17.7629 42.6841 18.4006 42.5262C18.3164 44.5299 19.1105 46.2057 21.4088 47.8086L21.7216 47.9665C23.1535 48.9258 24.3327 49.3265 25.524 49.3265C26.1617 49.3265 26.7874 49.1687 27.3529 48.9258C27.5094 49.8851 27.9065 50.8444 28.3035 51.5609L28.46 51.8038C29.6512 53.8074 30.9989 54.5239 32.5872 54.5239C33.0685 54.5239 33.5378 54.4389 34.0191 54.366C35.2825 58.0455 37.5928 61.0085 40.2881 62.2835C41.323 62.7693 42.3457 63 43.2963 63C43.9341 63 44.4876 62.915 45.0411 62.6843C47.0987 61.9678 48.6148 60.122 49.2405 57.4019C49.794 54.9975 49.6376 52.2774 48.8434 49.5572L49.3969 49.3994C49.4811 49.3994 49.5533 49.3144 49.6376 49.3144C50.5882 48.7558 51.2981 47.7965 51.6952 46.6793C52.8022 46.7643 53.9212 46.8371 55.1004 46.8371C62.4765 46.8371 69.8526 44.8335 70.1654 40.9111C70.1654 40.8261 70.1654 40.7533 70.1654 40.6683V34.4266L76.7593 7.12818C76.8556 6.88531 77 6.09599 77 6.16885ZM55.1125 2.33153C67.795 2.33153 74.4611 4.89379 74.6175 6.09599L74.5333 6.41172C73.7391 7.61392 67.1572 9.93331 55.1004 9.93331C43.0436 9.93331 36.4617 7.61392 35.6676 6.41172L35.5833 6.09599C35.7638 4.89379 42.43 2.33153 55.1125 2.33153ZM36.4016 9.53258C41.0823 11.6091 49.7218 12.2527 55.1125 12.2527C60.5031 12.2527 69.1426 11.6091 73.8234 9.53258L68.0356 34.0987C68.0356 34.1837 68.0356 34.2566 68.0356 34.3416C68.0356 35.8595 62.9578 38.106 55.2689 38.106C53.5241 38.106 51.8636 37.9482 50.1911 37.7903C48.8434 35.9445 46.7858 34.3537 44.5598 33.7951L45.4261 32.9936C45.5103 32.9086 45.5224 32.8965 45.5825 32.8358C46.4489 31.5607 46.7738 29.8728 46.3767 28.112C45.8232 25.149 43.5249 21.7853 40.8296 19.8666C40.7454 19.8666 40.7454 19.7816 40.6732 19.7816C40.601 19.7816 40.589 19.6966 40.5168 19.6966C39.879 19.2959 39.2533 18.8951 38.5314 18.5794L36.4016 9.53258ZM3.81692 34.2566C3.17919 33.698 2.46926 32.7386 2.38503 31.5364C2.3008 30.1764 3.09496 28.7313 4.52685 27.6991C5.95875 26.6669 7.85992 25.9383 10.0017 25.6955L10.5553 35.7745C10.5553 36.0902 10.6395 36.3331 10.6395 36.6488C7.85992 36.5031 5.32102 35.6166 3.81692 34.2566ZM15.9459 40.3404L15.6331 40.2554C13.5755 39.9397 13.1784 39.2961 12.9377 35.5316L12.2278 22.0039C12.4685 20.8017 13.8161 20.0852 14.6103 19.7573C15.958 19.1987 17.6185 19.0409 18.9661 19.1987C19.0504 19.1987 19.0504 19.1987 19.1226 19.1987C19.1948 19.1987 19.2068 19.1987 19.279 19.1987C21.108 19.5145 23.6348 20.8745 24.5132 22.5625C24.7539 23.0482 25.0908 24.3961 24.9945 24.809L20.0009 36.9767C19.6881 37.936 19.3632 38.8225 19.1346 39.6118C19.0504 39.6118 18.8939 39.6968 18.8217 39.7697C18.2442 40.1825 16.8123 40.4983 15.9459 40.3404ZM23.0813 46.0235L22.7685 45.8657C20.2296 44.1049 20.3138 42.6598 21.9743 38.106L28.8691 21.2145C30.3732 19.2109 34.1033 19.3687 37.0393 20.5709H37.1235C37.8335 20.8867 38.5554 21.2145 39.1811 21.6153C39.2654 21.6153 39.2654 21.7003 39.3376 21.7003C39.4097 21.7003 39.4218 21.7853 39.494 21.7853C41.72 23.3032 43.6212 26.1083 44.0183 28.5127C44.2589 29.6299 44.1025 30.5892 43.6212 31.3907L30.5296 43.947C26.9679 47.2257 25.6924 47.7843 23.0813 46.0235ZM47.1107 56.989C46.6294 58.8348 45.6788 60.1099 44.4154 60.5956C43.3083 60.9963 42.1893 60.5956 41.4072 60.2799C39.3496 59.2355 37.4484 56.8433 36.4136 53.8803C36.4978 53.8803 36.57 53.8803 36.6543 53.7953L46.7256 50.4316C47.4235 52.751 47.58 55.0704 47.1107 56.989ZM48.6148 47.2986L35.9323 51.4638C32.3586 52.5081 31.5764 52.4231 30.5416 50.5894L30.3852 50.3466C29.7475 49.2294 29.591 48.1 29.6753 47.7114V47.6264C30.4694 47.0678 31.2636 46.3514 32.1299 45.6228L41.72 36.4181C41.8404 36.3209 41.9487 36.2602 42.1051 36.1752C42.3457 36.0781 42.6706 36.0173 42.9955 36.0173C44.8967 35.8595 47.5198 37.8631 48.5426 39.7818L48.6268 39.8668C48.6268 39.9518 48.711 39.9518 48.711 40.0247C49.421 41.2269 49.8181 42.8298 49.7459 44.3477C49.7459 44.6635 49.7459 44.9913 49.6616 45.3921C49.5654 46.1085 49.3247 46.91 48.6148 47.2986ZM55.1967 44.5784C54.1619 44.5784 53.2113 44.4934 52.1885 44.4206C52.1885 44.4206 52.1885 44.4206 52.1885 44.3356C52.1885 42.9755 51.9479 41.6155 51.4786 40.3404C52.6698 40.4254 53.9333 40.4983 55.2087 40.4983C60.2023 40.4983 65.1237 39.5389 67.9755 37.7781V40.7411C67.9634 42.2591 62.8856 44.5784 55.1967 44.5784Z" fill="#FF3253"/>
</svg>
