<svg width="58" height="52" viewBox="0 0 58 52" fill="none" xmlns="http://www.w3.org/2000/svg">
<path d="M1.89196 8.91602e-07C0.847031 8.91602e-07 0 0.851757 0 1.90244C0 2.95313 0.847031 3.80489 1.89196 3.80489H9.18389L15.6875 34.6601C15.9448 35.8216 16.7019 36.7883 17.6583 36.7805H49.191C50.1905 36.7945 51.1099 35.8833 51.1099 34.8781C51.1099 33.8729 50.1905 32.9614 49.191 32.9756H19.1955L18.3875 29.1708H51.7136C52.5607 29.1644 53.361 28.5156 53.5464 27.6845L57.961 8.66008C58.207 7.55599 57.2534 6.34959 56.1282 6.34148H13.5985L12.5737 1.5061C12.3946 0.661354 11.5801 -0.000886915 10.7211 8.91602e-07H1.89196ZM14.3868 10.1464H24.2407L25.1867 15.8537H15.589L14.3868 10.1464ZM28.1035 10.1464H40.0071L39.0611 15.8537H29.0495L28.1035 10.1464ZM43.8698 10.1464H53.7435L52.4231 15.8537H42.9239L43.8698 10.1464ZM16.397 19.6586H25.8174L26.7634 25.3659H17.5991L16.397 19.6586ZM29.6801 19.6586H38.4305L37.4845 25.3659H30.6261L29.6801 19.6586ZM42.2932 19.6586H51.5363L50.2158 25.3659H41.3472L42.2932 19.6586ZM24.5955 39.3171C21.1349 39.3171 18.289 42.1787 18.289 45.6585C18.289 49.1383 21.1349 52 24.5955 52C28.0561 52 30.902 49.1383 30.902 45.6585C30.902 42.1788 28.0561 39.3171 24.5955 39.3171ZM42.2538 39.3171C38.7932 39.3171 35.9473 42.1787 35.9473 45.6585C35.9473 49.1383 38.7932 52 42.2538 52C45.7144 52 48.5603 49.1383 48.5603 45.6585C48.5603 42.1788 45.7144 39.3171 42.2538 39.3171ZM24.5955 43.1219C26.0111 43.1219 27.1181 44.2351 27.1181 45.6585C27.1181 47.0819 26.0111 48.1951 24.5955 48.1951C23.18 48.1951 22.0729 47.0819 22.0729 45.6585C22.0729 44.2351 23.18 43.1219 24.5955 43.1219ZM42.2538 43.1219C43.6694 43.1219 44.7764 44.2351 44.7764 45.6585C44.7764 47.0819 43.6694 48.1951 42.2538 48.1951C40.8383 48.1951 39.7312 47.0819 39.7312 45.6585C39.7312 44.2351 40.8383 43.1219 42.2538 43.1219Z" fill="white"/>
</svg>
