<svg width="45" height="33" viewBox="0 0 45 33" fill="none" xmlns="http://www.w3.org/2000/svg">
<path d="M40.5782 0.336481C39.6229 0.364322 38.7159 0.762835 38.0493 1.44765C37.2195 2.27749 31.7271 7.9231 26.0563 13.7472C21.4522 18.4757 18.2079 21.8023 16.3815 23.671L6.09356 15.8354C5.71375 15.5049 5.27014 15.2559 4.7902 15.1038C4.31026 14.9516 3.80421 14.8997 3.30336 14.9511C2.80252 15.0024 2.31755 15.1561 1.87849 15.4024C1.43942 15.6488 1.0556 15.9827 0.750795 16.3834C0.445986 16.7841 0.226675 17.2432 0.10644 17.7321C-0.0137942 18.221 -0.0323927 18.7293 0.0517956 19.2257C0.135984 19.7221 0.321167 20.1959 0.59588 20.6178C0.870594 21.0397 1.22899 21.4008 1.64888 21.6786L14.5231 31.4876C15.2312 32.0263 16.1105 32.2901 16.9981 32.2302C17.8858 32.1703 18.7217 31.7908 19.351 31.1619C20.1808 30.3321 25.6732 24.7056 31.344 18.8815C37.0148 13.0575 42.864 7.03582 43.2603 6.63954C43.7882 6.12158 44.1477 5.4565 44.292 4.73114C44.4362 4.00577 44.3585 3.25378 44.0689 2.57327C43.7793 1.89275 43.2913 1.31533 42.6686 0.916313C42.0459 0.5173 41.3174 0.315229 40.5782 0.336481Z" fill="black"/>
</svg>
