<svg width="50" height="50" viewBox="0 0 50 50" fill="none" xmlns="http://www.w3.org/2000/svg">
<path d="M44.8391 0H5.10544C2.27525 0 0 2.27525 0 5.10544V44.8946C0 47.7248 2.27525 50 5.10544 50H44.8946C47.7248 50 50 47.7248 50 44.8946V5.10544C49.9445 2.27525 47.6693 0 44.8391 0ZM47.7248 44.8391C47.7248 46.3929 46.4484 47.7248 44.8391 47.7248H5.10544C3.49612 47.7248 2.21976 46.4484 2.21976 44.8391V5.10544C2.21976 3.49612 3.49612 2.21976 5.10544 2.21976H44.8946C46.4484 2.21976 47.7802 3.49612 47.7802 5.10544V44.8391H47.7248ZM37.5694 23.8624H12.3751C11.7647 23.8624 11.2653 24.3618 11.2653 24.9723C11.2653 25.5827 11.7647 26.0821 12.3751 26.0821H37.5139C38.1243 26.0821 38.6238 25.5827 38.6238 24.9723C38.6238 24.3618 38.1798 23.8624 37.5694 23.8624Z" fill="white"/>
</svg>
