<svg width="78" height="78" viewBox="0 0 78 78" fill="none" xmlns="http://www.w3.org/2000/svg">
<path d="M74.325 30.425L47.425 3.525C42.725 -1.175 35.125 -1.175 30.425 3.525L3.525 30.425C-1.175 35.125 -1.175 42.725 3.525 47.425L30.425 74.325C35.125 79.025 42.725 79.025 47.425 74.325L74.325 47.425C78.925 42.725 78.925 35.125 74.325 30.425ZM55.825 49.725C49.125 53.125 44.025 58.225 40.725 64.825C40.725 64.825 40.725 64.925 40.625 64.925C40.625 65.025 40.525 65.025 40.525 65.125L40.425 65.225L40.325 65.325L40.225 65.425L40.125 65.525H40.025C40.025 65.525 40.025 65.525 39.925 65.525C39.925 65.525 39.925 65.525 39.825 65.525C39.725 65.525 39.625 65.625 39.625 65.625H39.525C39.525 65.625 39.525 65.625 39.425 65.625C39.325 65.625 39.125 65.625 39.025 65.625C38.925 65.625 38.725 65.625 38.625 65.625C38.625 65.625 38.625 65.625 38.525 65.625H38.425C38.325 65.625 38.225 65.525 38.225 65.525C38.225 65.525 38.225 65.525 38.125 65.525C38.125 65.525 38.125 65.525 38.025 65.525H37.925L37.825 65.425C37.725 65.425 37.725 65.325 37.725 65.325L37.625 65.225L37.525 65.125C37.525 65.025 37.425 65.025 37.425 64.925C37.425 64.925 37.425 64.825 37.325 64.825C34.025 58.225 28.925 53.125 22.225 49.725C21.225 49.225 20.825 48.025 21.325 47.025C21.825 46.025 23.025 45.625 24.025 46.125C29.325 48.825 33.725 52.525 37.125 57.025V13.925C37.125 12.825 38.025 11.925 39.125 11.925C40.225 11.925 41.125 12.825 41.125 13.925V57.025C44.525 52.525 48.925 48.825 54.225 46.125C55.225 45.625 56.425 46.025 56.925 47.025C57.425 48.025 56.825 49.225 55.825 49.725Z" fill="white" fill-opacity="0.8"/>
</svg>
