<svg width="40" height="40" viewBox="0 0 40 40" fill="none" xmlns="http://www.w3.org/2000/svg">
<path d="M1.32503 0.0111304C1.05669 0.0399322 0.802036 0.14448 0.590752 0.312593C0.379469 0.480706 0.220251 0.705463 0.131648 0.960679C0.0430453 1.2159 0.0287049 1.49106 0.090298 1.75412C0.151891 2.01719 0.286882 2.25731 0.479543 2.44652L17.9827 19.9843L0.479543 37.5073C0.333849 37.6365 0.216176 37.7943 0.133794 37.9709C0.0514123 38.1475 0.0060702 38.3391 0.000568777 38.534C-0.00493264 38.7288 0.0295237 38.9227 0.101809 39.1036C0.174094 39.2846 0.282674 39.4488 0.42084 39.5861C0.559006 39.7234 0.723825 39.8309 0.905116 39.9019C1.08641 39.973 1.28032 40.006 1.47488 39.9991C1.66943 39.9921 1.8605 39.9453 2.03628 39.8616C2.21205 39.7778 2.36881 39.6588 2.49685 39.512L20 21.9891L37.5031 39.512C37.6312 39.6588 37.7879 39.7778 37.9637 39.8616C38.1395 39.9453 38.3306 39.9921 38.5251 39.9991C38.7197 40.006 38.9136 39.973 39.0949 39.9019C39.2762 39.8309 39.441 39.7234 39.5792 39.5861C39.7173 39.4488 39.8259 39.2846 39.8982 39.1036C39.9705 38.9227 40.0049 38.7288 39.9994 38.534C39.9939 38.3391 39.9486 38.1475 39.8662 37.9709C39.7838 37.7943 39.6661 37.6365 39.5205 37.5073L22.0173 19.9843L39.5205 2.44652C39.7341 2.23798 39.8769 1.96752 39.9287 1.67334C39.9805 1.37916 39.9387 1.07612 39.8093 0.806997C39.6798 0.537874 39.4691 0.316268 39.207 0.173466C38.945 0.030664 38.6447 -0.0261203 38.3486 0.0111304C38.0259 0.0537289 37.7275 0.205715 37.5031 0.441779L20 17.9647L2.49685 0.441779C2.34702 0.285625 2.16362 0.165689 1.96059 0.0910713C1.75755 0.0164538 1.5402 -0.0108845 1.32503 0.0111304Z" fill="white"/>
</svg>
