<svg width="112" height="154" viewBox="0 0 112 154" fill="none" xmlns="http://www.w3.org/2000/svg">
<path d="M110.518 23.4535C110.068 23.0043 109.461 22.7532 108.825 22.7532H81.4234V21.3088C81.4234 19.9897 80.3497 18.9187 79.0306 18.9187H76.0191C75.453 8.38986 66.7099 0 56.041 0C45.3721 0 36.629 8.38986 36.0629 18.9187H33.0572C31.7382 18.9187 30.6644 19.9897 30.6644 21.3088V22.7532H2.68456C1.36551 22.7532 0.297565 23.8184 0.291757 25.1375L0 150.792C0 151.428 0.251102 152.038 0.700352 152.488C1.1496 152.937 1.75669 153.188 2.39281 153.188H108.534C109.853 153.188 110.921 152.123 110.927 150.804L111.218 25.1491C111.218 24.513 110.967 23.9031 110.518 23.4535ZM35.45 23.6988H38.4267C39.7457 23.6988 40.8195 22.6278 40.8195 21.3088V20.0013C40.8195 11.6087 47.6481 4.77981 56.041 4.77981C64.4336 4.77981 71.2626 11.6084 71.2626 20.0013V21.3088C71.2626 22.6278 72.3363 23.6988 73.6554 23.6988H76.6378V29.6286H35.4504V23.6988H35.45ZM106.146 148.408H4.79108L5.07122 27.533H30.6637V32.0183C30.6637 33.3374 31.7375 34.4084 33.0565 34.4084H79.0299C80.349 34.4084 81.4228 33.3374 81.4228 32.0183V27.533H106.426L106.146 148.408Z" fill="white"/>
<path d="M56.0407 8.04541C51.9493 8.04541 48.6166 11.375 48.6166 15.4664C48.6166 19.5605 51.9493 22.8904 56.0407 22.8904C60.1379 22.8904 63.4706 19.5609 63.4706 15.4664C63.4706 11.375 60.1379 8.04541 56.0407 8.04541ZM56.0407 18.1103C54.5874 18.1103 53.4026 16.9224 53.4026 15.4664C53.4026 14.0103 54.5874 12.8256 56.0407 12.8256C57.4998 12.8256 58.6846 14.0103 58.6846 15.4664C58.6846 16.9224 57.4998 18.1103 56.0407 18.1103Z" fill="white"/>
<path d="M39.5353 44.0386H17.1237C15.8047 44.0386 14.7309 45.1096 14.7309 46.4286V68.8405C14.7309 70.1596 15.8047 71.2306 17.1237 71.2306H39.5356C40.8547 71.2306 41.9284 70.1596 41.9284 68.8405V46.4286C41.9284 45.1096 40.8543 44.0386 39.5353 44.0386ZM37.1425 66.4501H19.5165V48.8184H37.1425V66.4501Z" fill="white"/>
<path d="M45.477 47.7739C45.477 49.0929 46.5507 50.1639 47.8698 50.1639H90.1836C91.5027 50.1639 92.5764 49.0929 92.5764 47.7739C92.5764 46.4548 91.5027 45.3838 90.1836 45.3838H47.8698C46.5507 45.3838 45.477 46.4548 45.477 47.7739Z" fill="white"/>
<path d="M90.1836 54.5264H47.8698C46.5507 54.5264 45.477 55.5974 45.477 56.9164C45.477 58.2355 46.5507 59.3065 47.8698 59.3065H90.1836C91.5027 59.3065 92.5764 58.2355 92.5764 56.9164C92.5768 55.5974 91.5027 54.5264 90.1836 54.5264Z" fill="white"/>
<path d="M47.8698 68.4496H73.1531C74.4722 68.4496 75.5459 67.3786 75.5459 66.0595C75.5459 64.7405 74.4722 63.6694 73.1531 63.6694H47.8698C46.5507 63.6694 45.477 64.7405 45.477 66.0595C45.477 67.3786 46.5507 68.4496 47.8698 68.4496Z" fill="white"/>
<path d="M39.5353 77.7964H17.1237C15.8047 77.7964 14.7309 78.8674 14.7309 80.1865V102.598C14.7309 103.917 15.8047 104.988 17.1237 104.988H39.5356C40.8547 104.988 41.9284 103.917 41.9284 102.598V80.1865C41.9284 78.8674 40.8543 77.7964 39.5353 77.7964ZM37.1425 100.208H19.5165V82.5765H37.1425V100.208Z" fill="white"/>
<path d="M90.1836 79.1416H47.8698C46.5507 79.1416 45.477 80.2126 45.477 81.5317C45.477 82.8507 46.5507 83.9218 47.8698 83.9218H90.1836C91.5027 83.9218 92.5764 82.8507 92.5764 81.5317C92.5764 80.2126 91.5027 79.1416 90.1836 79.1416Z" fill="white"/>
<path d="M90.1836 88.2871H47.8698C46.5507 88.2871 45.477 89.3581 45.477 90.6772C45.477 91.9962 46.5507 93.0673 47.8698 93.0673H90.1836C91.5027 93.0673 92.5764 91.9962 92.5764 90.6772C92.5764 89.3581 91.5027 88.2871 90.1836 88.2871Z" fill="white"/>
<path d="M47.8698 102.21H73.1531C74.4722 102.21 75.5459 101.139 75.5459 99.8202C75.5459 98.5012 74.4722 97.4302 73.1531 97.4302H47.8698C46.5507 97.4302 45.477 98.5012 45.477 99.8202C45.477 101.139 46.5507 102.21 47.8698 102.21Z" fill="white"/>
<path d="M39.5353 111.557H17.1237C15.8047 111.557 14.7309 112.628 14.7309 113.947V136.359C14.7309 137.678 15.8047 138.749 17.1237 138.749H39.5356C40.8547 138.749 41.9284 137.678 41.9284 136.359V113.947C41.9284 112.628 40.8543 111.557 39.5353 111.557ZM37.1425 133.969H19.5165V116.337H37.1425V133.969Z" fill="white"/>
<path d="M90.1836 112.902H47.8698C46.5507 112.902 45.477 113.973 45.477 115.292C45.477 116.611 46.5507 117.682 47.8698 117.682H90.1836C91.5027 117.682 92.5764 116.611 92.5764 115.292C92.5764 113.973 91.5027 112.902 90.1836 112.902Z" fill="white"/>
<path d="M90.1836 122.045H47.8698C46.5507 122.045 45.477 123.116 45.477 124.435C45.477 125.755 46.5507 126.826 47.8698 126.826H90.1836C91.5027 126.826 92.5764 125.755 92.5764 124.435C92.5764 123.116 91.5027 122.045 90.1836 122.045Z" fill="white"/>
<path d="M73.1531 131.191H47.8698C46.5507 131.191 45.477 132.262 45.477 133.581C45.477 134.9 46.5507 135.971 47.8698 135.971H73.1531C74.4722 135.971 75.5459 134.9 75.5459 133.581C75.5459 132.262 74.4722 131.191 73.1531 131.191Z" fill="white"/>
</svg>
