<svg width="48" height="34" viewBox="0 0 48 34" fill="none" xmlns="http://www.w3.org/2000/svg">
<path d="M15.6899 33.3842C15.8418 33.5669 16.03 33.7159 16.2425 33.8216C16.455 33.9274 16.6871 33.9875 16.9241 33.9983C17.161 34.009 17.3976 33.9701 17.6187 33.884C17.8399 33.798 18.0407 33.6666 18.2084 33.4984C18.3761 33.3301 18.5071 33.1287 18.5929 32.9068C18.6787 32.685 18.7174 32.4477 18.7067 32.21C18.696 31.9723 18.6361 31.7395 18.5307 31.5263C18.4253 31.3132 18.2768 31.1244 18.0946 30.972L5.82588 18.6503L46.3786 18.6503C46.8163 18.627 47.2285 18.4362 47.5302 18.1171C47.8318 17.798 48 17.375 48 16.9352C48 16.4955 47.8318 16.0725 47.5302 15.7534C47.2285 15.4343 46.8163 15.2434 46.3786 15.2201L5.82588 15.2201L18.1138 2.91293C18.4231 2.58802 18.5957 2.15606 18.5957 1.70682C18.5957 1.25757 18.4231 0.825605 18.1138 0.500699C17.9561 0.341993 17.7687 0.216069 17.5624 0.130151C17.3561 0.0442287 17.1349 1.11638e-06 16.9115 1.09685e-06C16.6881 1.07732e-06 16.4669 0.0442287 16.2606 0.130151C16.0543 0.216069 15.8669 0.341992 15.7092 0.500699L0.511511 15.746C0.349756 15.9022 0.221082 16.0895 0.133188 16.2967C0.0452972 16.504 -2.30463e-06 16.7269 -2.32432e-06 16.9521C-2.34401e-06 17.1773 0.0452972 17.4002 0.133188 17.6075C0.221082 17.8147 0.349756 18.002 0.51151 18.1582L15.6899 33.3842Z" fill="white"/>
</svg>
