<svg width="24" height="34" viewBox="0 0 24 34" fill="none" xmlns="http://www.w3.org/2000/svg">
<path d="M23.5653 22.8863C23.6943 22.7787 23.7995 22.6454 23.8741 22.4949C23.9487 22.3444 23.9912 22.18 23.9988 22.0121C24.0063 21.8443 23.9789 21.6767 23.9181 21.5201C23.8574 21.3634 23.7647 21.2212 23.6459 21.1024C23.5271 20.9836 23.3849 20.8908 23.2284 20.8301C23.0718 20.7693 22.9043 20.7418 22.7365 20.7494C22.5687 20.757 22.4043 20.7995 22.2539 20.8741C22.1034 20.9488 21.9701 21.054 21.8626 21.183L13.1649 29.8733L13.1649 1.14851C13.1485 0.838426 13.0138 0.546463 12.7885 0.332787C12.5633 0.119111 12.2647 1.39942e-07 11.9543 1.43644e-07C11.6439 1.47346e-07 11.3453 0.119111 11.12 0.332787C10.8948 0.546463 10.7601 0.838426 10.7436 1.14851L10.7436 29.8733L2.05619 21.1694C1.82684 20.9503 1.52192 20.828 1.20481 20.828C0.887697 20.828 0.582779 20.9503 0.353434 21.1694C0.241406 21.2811 0.152519 21.4138 0.0918696 21.56C0.0312197 21.7061 2.60711e-07 21.8628 2.62598e-07 22.021C2.64485e-07 22.1793 0.0312197 22.3359 0.0918696 22.4821C0.152519 22.6282 0.241406 22.761 0.353434 22.8727L11.1148 33.6377C11.2251 33.7523 11.3573 33.8434 11.5036 33.9057C11.6499 33.9679 11.8072 34 11.9662 34C12.1252 34 12.2825 33.9679 12.4288 33.9057C12.5751 33.8434 12.7073 33.7523 12.8176 33.6377L23.5653 22.8863Z" fill="white"/>
</svg>
