<svg width="129" height="157" viewBox="0 0 129 157" fill="none" xmlns="http://www.w3.org/2000/svg">
<path d="M64.501 20.166C52.0807 20.3588 40.2433 25.4685 31.5828 34.3754C22.9223 43.2823 18.145 55.2599 18.2979 67.6836C18.2761 76.5075 20.6934 85.1658 25.2829 92.7017C25.2829 92.7017 28.7348 97.7334 29.032 98.0307C33.4192 103.661 36.719 110.059 38.7622 116.898C39.9402 120.919 40.6699 125.058 40.9382 129.239C40.9817 129.943 41.292 130.604 41.8057 131.087C42.3194 131.57 42.9979 131.839 43.703 131.839H85.2709C85.9763 131.839 86.6552 131.57 87.1693 131.087C87.6835 130.604 87.9943 129.943 88.0386 129.239C88.3016 125.055 89.0401 120.915 90.2398 116.898C92.2598 110.05 95.5617 103.647 99.97 98.0307L103.719 92.7017C108.309 85.1658 110.726 76.5075 110.704 67.6836C110.857 55.2599 106.08 43.2823 97.4192 34.3754C88.7587 25.4685 76.9213 20.3588 64.501 20.166ZM97.1967 92.7017C95.7302 94.7127 93.0102 98.2915 93.0102 98.2915C90.7334 101.652 88.8116 105.24 87.2758 108.997C86.4029 111.046 85.6538 113.146 85.0326 115.285C83.992 118.868 83.264 122.535 82.8566 126.243H46.1286C45.748 122.531 45.0204 118.862 43.9554 115.285C43.3297 113.139 42.5807 111.03 41.7121 108.969C40.1586 105.234 38.2476 101.658 36.0058 98.2915C36.0058 98.2915 33.2858 94.7127 31.8193 92.7017C26.546 85.4286 23.7191 76.6679 23.7463 67.6836C23.6091 56.723 27.8218 46.1551 35.4612 38.2958C43.1005 30.4366 53.5433 25.9271 64.501 25.7558C75.4611 25.9235 85.9075 30.4313 93.5498 38.2909C101.192 46.1506 105.407 56.7206 105.27 67.6836C105.297 76.6679 102.47 85.4286 97.1967 92.7017ZM86.2439 137.426C86.2502 137.789 86.1849 138.149 86.0517 138.487C85.9184 138.824 85.7199 139.132 85.4674 139.392C85.215 139.653 84.9137 139.861 84.5806 140.005C84.2476 140.149 83.8895 140.225 83.5268 140.231H45.4752C44.7746 140.172 44.1216 139.852 43.6456 139.334C43.1697 138.817 42.9055 138.139 42.9055 137.436C42.9055 136.732 43.1697 136.055 43.6456 135.537C44.1216 135.019 44.7746 134.7 45.4752 134.641H83.5268C84.2559 134.651 84.9512 134.95 85.4604 135.472C85.9697 135.994 86.2514 136.697 86.2439 137.426ZM86.2439 145.809C86.2502 146.172 86.1849 146.532 86.0517 146.87C85.9184 147.207 85.7199 147.515 85.4674 147.776C85.215 148.036 84.9137 148.244 84.5806 148.388C84.2476 148.532 83.8895 148.609 83.5268 148.614H45.4752C44.7746 148.555 44.1216 148.235 43.6456 147.717C43.1697 147.2 42.9055 146.522 42.9055 145.819C42.9055 145.116 43.1697 144.438 43.6456 143.92C44.1216 143.403 44.7746 143.083 45.4752 143.024H83.5268C84.2561 143.034 84.9518 143.332 85.4613 143.854C85.9707 144.377 86.2522 145.08 86.2439 145.809ZM78.0896 154.195C78.0959 154.558 78.0306 154.919 77.8974 155.256C77.7641 155.593 77.5656 155.901 77.3131 156.162C77.0607 156.422 76.7593 156.631 76.4263 156.774C76.0933 156.918 75.7352 156.995 75.3725 157H53.6295C52.9289 156.941 52.2759 156.621 51.7999 156.104C51.324 155.586 51.0598 154.908 51.0598 154.205C51.0598 153.502 51.324 152.824 51.7999 152.307C52.2759 151.789 52.9289 151.469 53.6295 151.41H75.3725C76.1018 151.42 76.7975 151.718 77.307 152.241C77.8164 152.763 78.0979 153.466 78.0896 154.195ZM61.7838 13.4571V2.71778C61.7838 1.99698 62.0701 1.3057 62.5797 0.796019C63.0892 0.286337 63.7803 0 64.501 0C65.2216 0 65.9128 0.286337 66.4223 0.796019C66.9319 1.3057 67.2182 1.99698 67.2182 2.71778V13.4571C67.2182 14.1779 66.9319 14.8691 66.4223 15.3788C65.9128 15.8885 65.2216 16.1748 64.501 16.1748C63.7803 16.1748 63.0892 15.8885 62.5797 15.3788C62.0701 14.8691 61.7838 14.1779 61.7838 13.4571ZM24.122 17.1228C23.9045 16.8142 23.7506 16.4653 23.6693 16.0965C23.5881 15.7278 23.581 15.3465 23.6486 14.975C23.7162 14.6035 23.8571 14.2491 24.0631 13.9327C24.2691 13.6162 24.536 13.3439 24.8483 13.1317C25.4575 12.7537 26.1895 12.6264 26.8906 12.7764C27.5917 12.9265 28.2074 13.3423 28.6086 13.9367L34.671 22.5163C35.0961 23.1181 35.2711 23.8614 35.1592 24.5896C35.0473 25.3179 34.6571 25.9742 34.071 26.4205C33.6114 26.7676 33.0513 26.9556 32.4754 26.9562C32.0428 26.9555 31.6168 26.8504 31.2336 26.6497C30.8503 26.449 30.5212 26.1587 30.2742 25.8035L24.122 17.1228ZM15.2387 53.0654C15.0692 53.6204 14.727 54.1068 14.262 54.4538C13.797 54.8009 13.2335 54.9905 12.6533 54.995C12.3675 54.9956 12.0834 54.9502 11.8121 54.8604L1.88557 51.5396C1.19125 51.2982 0.619442 50.7938 0.293236 50.135C-0.0329697 49.4761 -0.0874859 48.7155 0.141422 48.0169C0.245195 47.6721 0.416708 47.3515 0.645916 47.0738C0.875125 46.7961 1.15742 46.567 1.47627 46.3998C1.79512 46.2327 2.14411 46.1308 2.50281 46.1003C2.86151 46.0697 3.22269 46.111 3.56522 46.2218L13.4945 49.5567C14.1856 49.7981 14.7549 50.3002 15.0808 50.9558C15.4067 51.6114 15.4633 52.3685 15.2387 53.0654ZM15.2387 85.99C15.4667 86.6883 15.4118 87.4482 15.0856 88.1064C14.7595 88.7646 14.1882 89.2686 13.4945 89.5099L3.56522 92.8279C3.29386 92.9177 3.00981 92.9632 2.72399 92.9626C2.14347 92.9578 1.57962 92.7678 1.11459 92.4202C0.649551 92.0726 0.307623 91.5856 0.138617 91.0301C-0.0894419 90.3318 -0.0344935 89.5719 0.29165 88.9137C0.617794 88.2555 1.1891 87.7515 1.88276 87.5102L11.8121 84.1922C12.1549 84.0802 12.5167 84.0381 12.8761 84.0682C13.2355 84.0984 13.5853 84.2003 13.9047 84.3678C14.2241 84.5354 14.5067 84.7653 14.7358 85.0439C14.9649 85.3225 15.1359 85.6442 15.2387 85.99ZM128.861 91.0385C128.692 91.594 128.35 92.0811 127.885 92.4287C127.42 92.7762 126.856 92.9662 126.275 92.971C125.989 92.9714 125.705 92.9259 125.434 92.8363L115.507 89.5099C114.814 89.2686 114.242 88.7646 113.916 88.1064C113.59 87.4482 113.535 86.6883 113.763 85.99C113.866 85.6448 114.038 85.3236 114.267 85.0454C114.496 84.7673 114.778 84.5377 115.097 84.3702C115.416 84.2027 115.765 84.1007 116.124 84.0701C116.483 84.0395 116.844 84.081 117.187 84.1922L127.116 87.5102C127.81 87.7515 128.381 88.2555 128.708 88.9137C129.034 89.5719 129.089 90.3318 128.861 91.0301V91.0385ZM113.763 53.0654C113.539 52.3685 113.595 51.6114 113.921 50.9558C114.247 50.3002 114.816 49.7981 115.507 49.5567L125.437 46.2359C125.779 46.1247 126.141 46.083 126.499 46.1134C126.858 46.1438 127.207 46.2456 127.526 46.4128C127.845 46.58 128.128 46.8093 128.357 47.0872C128.586 47.365 128.757 47.6859 128.861 48.0309C129.089 48.7295 129.035 49.4902 128.709 50.149C128.383 50.8079 127.811 51.3123 127.116 51.5536L117.187 54.8744C116.916 54.9642 116.632 55.0096 116.346 55.009C115.764 55.003 115.2 54.8111 114.735 54.4614C114.271 54.1117 113.93 53.6225 113.763 53.0654ZM94.945 26.4205C94.3589 25.9742 93.9687 25.3179 93.8568 24.5896C93.7449 23.8614 93.9199 23.1181 94.345 22.5163L100.48 13.8217C100.685 13.5268 100.947 13.2762 101.251 13.0849C101.555 12.8936 101.894 12.7654 102.248 12.7081C102.603 12.6508 102.965 12.6655 103.313 12.7512C103.662 12.837 103.99 12.9922 104.277 13.2074C104.863 13.6532 105.253 14.3089 105.365 15.0365C105.478 15.7641 105.304 16.5069 104.88 17.1088L98.7418 25.8035C98.4948 26.1587 98.1657 26.449 97.7824 26.6497C97.3992 26.8504 96.9732 26.9555 96.5406 26.9562C95.9653 26.9572 95.4053 26.7712 94.945 26.4261V26.4205Z" fill="white"/>
</svg>
