<svg width="51" height="51" viewBox="0 0 51 51" fill="none" xmlns="http://www.w3.org/2000/svg">
<path d="M25.8687 6.25622C15.018 6.25622 6.2634 14.9124 6.2634 25.5056C6.2634 36.0988 15.018 44.8155 25.8687 44.8155C36.7195 44.8155 45.4741 36.2199 45.4741 25.5661C45.4741 14.9124 36.7195 6.25622 25.8687 6.25622ZM25.8687 41.8494C24.6973 41.8494 23.6493 41.7889 22.6012 41.4862L21.1832 38.278L19.7652 33.8591L15.4495 33.4354L13.6 31.6194L10.8873 32.3458C9.83921 30.2272 9.346 27.9269 9.346 25.5056C9.346 24.3555 9.4693 23.2054 9.77756 21.9947L12.7985 21.3894L13.7849 18.7865L16.436 20.1787L19.1487 16.2441L16.9908 11.6436C19.5802 10.0698 22.6012 9.10125 25.8687 9.10125C26.6085 9.10125 27.41 9.16179 28.1498 9.22232L29.9378 12.7332L26.6085 16.2441L22.4162 19.755L21.9846 26.1715L27.5333 30.5298L28.6431 36.0383L33.8835 36.462L34.8699 29.1981L40.2953 24.4766L39.6171 20.3603L41.7133 19.5129C42.4531 21.3289 42.8847 23.387 42.8847 25.4451C42.5148 34.4644 34.9932 41.8494 25.8687 41.8494Z" fill="white" fill-opacity="0.8"/>
<path d="M3.92067 50.9901C3.48911 50.9901 3.1192 50.869 2.81094 50.5663C2.31772 50.1426 2.13277 49.5373 2.25607 48.932L4.59885 38.3993C2.19442 34.5252 0.899728 30.1063 0.899728 25.5663C0.838076 12.007 12.0587 0.990078 25.8688 0.990078C39.6788 0.990078 50.8995 12.007 50.8995 25.5663C50.8995 39.1257 39.6788 50.0821 25.8688 50.0821C21.7997 50.0821 17.7924 49.1136 14.2166 47.237L4.53719 50.869C4.35224 50.9901 4.10563 50.9901 3.92067 50.9901ZM14.3399 43.6656C14.6481 43.6656 14.9564 43.7262 15.203 43.9078C18.4705 45.7237 22.108 46.6923 25.8688 46.6923C37.7676 46.6923 47.3853 37.1886 47.3853 25.5663C47.3853 13.8835 37.7676 4.37991 25.8688 4.37991C13.9699 4.37991 4.35224 13.8835 4.35224 25.5058C4.35224 29.622 5.58528 33.6777 7.8664 37.1281C8.17466 37.6124 8.23631 38.1571 8.05136 38.6414L6.3251 46.5107L13.7233 43.7262C13.9083 43.7262 14.0932 43.6656 14.3399 43.6656Z" fill="white" fill-opacity="0.8"/>
</svg>
