<svg width="71" height="68" viewBox="0 0 71 68" fill="none" xmlns="http://www.w3.org/2000/svg">
<path d="M35.5 0C28.6943 0 23.124 5.5948 23.124 12.4306C23.124 19.2664 28.6943 24.8613 35.5 24.8613C42.3057 24.8613 47.876 19.2664 47.876 12.4306C47.876 5.5948 42.3057 0 35.5 0ZM35.5 4.97222C39.6304 4.97222 42.9256 8.28201 42.9256 12.4306C42.9256 16.5792 39.6304 19.889 35.5 19.889C31.3696 19.889 28.0744 16.5792 28.0744 12.4306C28.0744 8.28201 31.3696 4.97222 35.5 4.97222ZM35.5 26.5187C26.2347 26.5187 18.2734 32.8909 16.0078 41.5909C12.1726 42.6987 8.90183 44.668 6.49381 47.1587C6.24244 47.4149 0.151128 64.6393 0.151128 64.6393C-0.284497 65.7729 0.255827 67.1945 1.33277 67.7481C2.40972 68.3017 3.87365 67.9104 4.53428 66.8924C6.9471 63.4095 12.7148 60.4958 18.9987 60.4958C25.3319 60.4958 31.0583 63.3538 33.4631 66.8666C33.9163 67.5256 34.7026 67.9399 35.5 67.9399C36.2974 67.9399 37.0837 67.5256 37.5369 66.8666C39.7653 63.6114 44.7722 60.8767 50.5059 60.4958C51.802 60.4146 52.9077 59.1561 52.8267 57.8543C52.7457 56.5524 51.4926 55.442 50.1965 55.5236C45.5602 55.8315 41.3176 57.3512 37.9752 59.7448V48.5831C40.7118 46.8933 44.4314 45.579 48.108 45.579C53.4386 45.579 57.8092 47.6309 60.5871 50.3182L63.2428 57.9061C61.9954 57.3078 60.6686 56.7974 59.1948 56.43C57.9081 56.0185 56.365 56.8855 56.0408 58.2023C55.7166 59.519 56.6794 61.0085 58.0088 61.2468C62.1116 62.2698 64.596 64.1934 66.4657 66.8924C67.1264 67.9104 68.5903 68.3017 69.6672 67.7481C70.7442 67.1945 71.2845 65.7729 70.8489 64.6393C70.8489 64.6393 64.7576 47.4149 64.5062 47.1587C62.0982 44.668 58.8274 42.6987 54.9922 41.5909C52.7266 32.8909 44.7653 26.5187 35.5 26.5187ZM35.5 31.491C41.6763 31.491 47.0926 35.2747 49.4487 40.6326C49.0047 40.6094 48.5614 40.6069 48.108 40.6069C43.3479 40.6069 38.9593 42.1936 35.5 44.3361C32.0407 42.1936 27.6521 40.6069 22.892 40.6069C22.4386 40.6069 21.9953 40.6069 21.5512 40.6326C23.9074 35.2747 29.3237 31.491 35.5 31.491ZM22.892 45.579C26.5686 45.579 30.2882 46.8933 33.0248 48.5831V59.7966C29.2474 57.0989 24.3147 55.5236 18.9987 55.5236C14.9033 55.5236 11.0167 56.4711 7.67985 58.1133L10.4129 50.3182C13.1908 47.6309 17.5614 45.579 22.892 45.579Z" fill="white"/>
</svg>
