<svg width="81" height="47" viewBox="0 0 81 47" fill="none" xmlns="http://www.w3.org/2000/svg">
<path d="M79.9407 41.324C79.8407 40.814 79.6207 40.374 79.2007 40.044C77.7707 38.904 76.9007 37.364 76.2107 35.724C75.8007 34.734 75.5607 33.684 75.2707 32.654C74.6007 30.224 72.9707 28.514 70.7507 27.624C68.9207 26.884 66.8807 26.454 64.8307 26.934C63.5407 27.234 62.2407 27.504 61.0007 27.924C60.0607 28.254 59.0607 28.664 58.3307 29.324C56.9707 30.534 55.6907 31.844 54.8707 33.514C54.7107 33.824 54.4507 34.084 54.2007 34.424C54.0207 34.164 53.8907 34.024 53.8107 33.854C52.7107 31.394 50.4507 29.994 48.6007 28.224C46.6307 27.574 45.0207 26.204 42.8807 25.794C40.3807 25.304 37.9807 25.674 35.5407 25.904C33.1507 26.854 30.6007 27.464 28.4507 28.964C27.8807 29.364 27.3107 29.744 26.7707 30.174C26.2507 30.594 25.7007 30.544 25.1807 30.244C24.7907 30.034 24.4607 29.734 24.1007 29.474C21.6507 27.694 18.9707 26.614 15.9107 26.294C13.8207 26.074 11.8707 26.374 10.0207 27.184C8.3407 27.914 6.6607 28.774 5.5307 30.274C4.1207 32.134 2.9107 34.154 2.0907 36.344C1.6907 37.424 1.2407 38.454 0.510698 39.344C0.120698 39.814 0.0106973 40.314 0.000697297 40.914C-0.0193027 41.954 0.390697 42.744 1.2607 43.414C4.5407 43.554 7.8907 43.444 11.2207 43.134C13.7607 42.894 16.2707 43.164 18.6507 42.964C19.6007 43.444 19.8207 44.264 20.1207 44.964C21.0107 45.354 21.8707 45.694 22.7507 45.484C23.8207 45.234 24.8807 45.354 25.9507 45.314C27.1507 45.274 28.3707 45.324 29.5507 45.144C32.3207 44.744 35.1107 44.794 37.8807 44.874C41.3507 44.974 44.8207 45.294 48.2807 45.534C50.2407 45.674 52.2007 45.774 54.1307 46.044C55.4707 46.244 56.5207 45.854 57.3407 44.924C57.7207 44.494 58.0907 44.294 58.6007 44.224C59.6607 44.084 60.7207 43.904 61.7907 43.794C63.8707 43.584 65.9407 43.244 68.0407 43.424C69.8107 43.564 71.5807 43.394 73.3207 43.224C74.4807 43.124 75.6207 43.014 76.6707 43.434C77.6407 43.824 78.3807 43.544 79.1407 43.044C79.9507 42.554 80.1107 42.194 79.9407 41.324ZM22.3407 36.764C21.8707 37.564 21.8907 38.634 20.9807 39.184C19.0507 39.304 17.2907 39.534 15.5407 39.474C13.7007 39.414 11.8907 39.744 10.0707 39.654C8.3207 39.574 6.5807 40.194 4.7307 39.684C4.6807 38.884 4.9507 38.164 5.2407 37.514C5.8707 36.074 6.5507 34.644 7.3607 33.294C8.1607 31.944 9.5307 31.184 10.8807 30.524C13.0207 29.464 14.3607 29.464 16.7507 29.874C18.8007 30.224 20.5807 31.064 22.2607 32.224C22.9607 32.704 23.5207 33.264 23.7707 34.234C23.3207 35.034 22.8407 35.904 22.3407 36.764ZM48.3707 41.744C46.6107 41.564 44.8507 41.324 43.0907 41.274C41.0307 41.224 38.9507 41.364 36.8807 41.394C34.5407 41.424 32.2107 41.484 29.8807 41.784C28.3907 41.984 26.8507 41.904 25.3407 41.924C25.1107 41.934 24.8707 41.794 24.5007 41.684C24.5307 40.524 24.7907 39.604 25.2807 38.804C26.3407 37.014 27.4507 35.244 28.5807 33.494C29.1407 32.644 29.8907 31.964 30.8507 31.534C32.3407 30.864 33.8307 30.154 35.3207 29.464C35.4407 29.414 35.5607 29.384 35.6807 29.364C38.3107 28.824 40.9907 28.564 43.5107 29.624C46.1507 30.734 48.5007 32.364 50.1207 34.824C50.8107 35.864 51.6807 36.794 52.0107 38.074C52.1707 38.674 52.4707 39.194 52.4107 39.874C52.3707 40.334 52.6607 40.824 52.8307 41.394C51.3507 41.794 49.8807 41.894 48.3707 41.744ZM68.3207 39.884C66.0607 39.974 63.8007 39.834 61.5407 40.234C60.3207 40.444 59.0307 40.294 57.7607 40.284C57.1707 40.274 56.6707 40.064 56.2507 39.474C56.3907 39.274 56.5007 39.054 56.6807 38.914C57.1107 38.584 57.3407 38.164 57.3407 37.624C57.3407 37.494 57.3607 37.374 57.3707 37.244C57.6407 34.584 59.2807 32.904 61.4907 31.744C63.1107 30.894 64.9007 30.504 66.7707 30.454C69.0407 30.404 71.1807 31.854 71.7807 33.754C72.0507 34.594 72.3207 35.444 72.4407 36.304C72.5907 37.294 72.5907 38.304 72.6607 39.534C71.1807 39.674 69.7507 39.824 68.3207 39.884Z" fill="white"/>
<path d="M27.7806 17.5041C28.9906 19.6341 30.8806 21.0441 33.1406 21.7641C34.6806 22.2641 36.3706 22.2841 38.1506 22.5541C38.8806 22.4041 39.7406 22.2441 40.6006 22.0541C43.2006 21.4641 45.3106 19.9641 47.3406 18.3441C48.5306 17.3941 49.4606 16.2241 50.1806 14.8741C50.8206 13.6741 51.2906 12.4041 51.1706 11.0641C50.9506 8.75406 50.6306 6.48406 49.1406 4.49406C48.0806 3.07406 46.8206 1.94406 45.2406 1.36406C42.7706 0.464059 40.2206 -0.295941 37.5106 0.114059C36.2706 0.294059 34.9706 0.204059 33.9406 1.13406C33.7306 1.32406 33.3506 1.32406 33.0606 1.45406C29.9206 2.87406 27.7606 5.07406 27.3806 8.66406C27.3106 9.36406 27.1206 10.0041 26.8806 10.6641C26.3306 12.1741 26.1006 13.7341 26.7906 15.2841C27.1106 16.0241 27.3806 16.8041 27.7806 17.5041ZM29.8206 12.4141C30.0106 10.7041 30.7306 9.15406 31.2606 7.54406C31.3906 7.15406 31.7206 6.78406 32.0406 6.51406C32.8106 5.86406 33.6406 5.28406 34.4506 4.66406C35.1806 4.11406 36.0606 3.90406 36.9206 3.75406C39.0106 3.38406 41.1106 3.50406 43.0606 4.34406C44.8906 5.12406 46.4906 6.31406 47.0606 8.36406C47.7406 10.8441 47.7906 13.2441 45.6106 15.1541C45.4206 15.3241 45.1906 15.4941 45.1006 15.7141C44.6106 16.8741 43.5506 17.3141 42.5306 17.7941C41.9606 18.0641 41.4306 18.4441 40.8306 18.5941C39.8006 18.8641 38.7406 18.9941 37.7706 19.1641C36.6106 18.9841 35.5106 18.9541 34.5106 18.6441C32.0606 17.8741 30.3006 16.3741 29.8306 13.6941C29.7606 13.2841 29.7706 12.8341 29.8206 12.4141Z" fill="white"/>
<path d="M58.5906 22.8041C58.8806 23.1741 59.3806 23.4141 59.8306 23.6041C61.3706 24.2641 63.0206 24.1541 64.6506 24.1841C65.1506 24.2141 65.6806 24.3441 66.1606 24.2441C68.5806 23.7441 70.7706 22.8241 72.1806 20.6541C72.9706 19.4441 73.6106 18.1541 73.8806 16.6941C74.2706 14.5941 73.7506 12.7541 72.6306 10.9341C71.7306 9.46407 70.7106 8.28407 69.0106 7.85407C67.8606 7.56407 66.7306 7.04407 65.5006 7.26407C63.8306 7.55407 62.1406 7.79407 60.6906 8.82407C60.0206 9.29407 59.3106 9.73407 58.5606 10.0441C55.5706 11.2841 54.5106 15.4741 55.8506 18.7341C56.4906 20.3141 57.5806 21.5241 58.5906 22.8041ZM59.9906 13.7541C60.7806 13.1341 61.5906 12.4941 62.4906 12.0841C63.5106 11.6141 64.6206 11.3141 65.7306 11.0841C67.4306 10.7341 68.8506 11.4141 69.7606 12.8641C70.8406 14.6041 70.7506 16.3741 69.4806 18.1541C68.5906 19.4141 67.3106 20.0241 65.8706 20.3841C64.6606 20.6841 63.5106 20.6541 62.4206 19.9441C62.0006 19.6741 61.5406 19.4541 61.0906 19.2441C59.6706 18.5841 58.9706 17.5041 59.1406 15.9141C58.8906 14.9841 59.3106 14.2741 59.9906 13.7541Z" fill="white"/>
<path d="M7.23066 17.4741C7.51066 19.6241 9.01066 20.9441 10.5707 22.0641C11.9507 23.0541 13.7107 23.3341 15.4107 23.5141C16.9807 23.6141 18.3707 22.9641 19.3407 21.9341C21.0207 20.1541 22.5507 18.2641 22.7807 15.5841C22.9207 13.9541 22.7507 12.4741 22.2807 10.9541C21.9707 9.96409 21.5307 9.06409 20.7707 8.36409C19.5407 7.23409 18.1107 6.42409 16.4707 6.07409C15.3507 5.83409 14.1907 5.86409 13.1307 6.38409C11.4907 7.20409 9.94066 8.19409 8.66066 9.53409C7.29066 10.9841 6.90066 12.8341 6.62066 14.7141C6.59066 14.8941 6.65066 15.0941 6.69066 15.2741C6.89066 16.0041 7.14066 16.7341 7.23066 17.4741ZM10.7807 13.2741C11.6307 11.4041 13.0707 10.2341 15.0707 9.91409C16.1907 9.73409 17.2807 9.97409 18.1007 11.0141C18.8807 12.0041 19.4707 12.9841 19.1807 14.2041C19.1307 16.2241 18.3807 17.7841 16.8607 19.0241C15.8007 19.8841 14.6507 19.8041 13.6807 19.2541C12.6707 18.6841 11.7107 17.8441 11.0407 16.9041C10.2707 15.8341 10.2107 14.5241 10.7807 13.2741Z" fill="white"/>
</svg>
