<svg width="57" height="80" viewBox="0 0 57 80" fill="none" xmlns="http://www.w3.org/2000/svg">
<g clip-path="url(#clip0_55:83)">
<path fill-rule="evenodd" clip-rule="evenodd" d="M20.9328 16.7149C23.0766 17.0389 23.6137 15.5979 24.1685 13.994C25.5711 9.93421 28.8172 7.39238 32.1935 4.98666C32.3474 4.87718 32.6167 4.88013 32.8297 4.89789C33.0339 4.91564 33.2321 5.01921 33.7988 5.20267C29.776 11.4167 23.3962 15.6689 20.8588 23.1671C17.5831 20.0439 14.8105 17.0374 12.2657 13.7425C15.3328 11.9567 19.0937 13.3579 20.9328 16.7149ZM40.3812 27.5155C44.7104 24.4321 51.9112 26.5242 54.7815 31.383C57.1399 35.3777 58.0765 39.4686 56.0095 43.9235C55.1973 45.6738 54.5507 47.5099 53.9486 49.3445C53.2961 51.336 51.2647 52.0668 50.2497 53.9015C48.6119 56.8605 46.0937 59.3254 43.9469 61.996C43.8108 62.1676 43.6407 62.3141 43.5179 62.4916C42.244 64.3381 42.7012 67.3031 39.9108 68.176C40.4375 69.9928 38.6443 70.774 38.1634 72.1456C38.0495 72.4592 37.8838 72.9105 37.6352 73.0007C34.8508 73.9817 34.6318 76.093 35.1112 78.5712C35.2103 79.0742 35.1259 79.6128 35.1259 80.8097C31.1312 78.728 31.6342 74.6933 29.8958 72.0893C18.8836 71.2223 11.0495 64.7316 4.09572 57.081C-1.30753 51.1347 0.932479 41.9587 5.38587 38.1311C8.66451 35.3141 13.2703 34.8081 16.8493 37.1502C19.9075 39.1535 22.8458 41.3373 26.0904 43.6187C26.6186 42.4795 27.0122 41.3654 27.6129 40.3815C30.8486 35.07 35.3627 31.09 40.3812 27.5155ZM50.5885 32.6288C49.2377 32.1124 47.5303 31.5561 46.2831 31.9615C43.5519 32.8462 40.8207 33.981 38.7804 36.2418C37.1869 38.0069 37.5468 39.3907 35.7225 40.8761C34.5064 41.8645 32.8297 43.6187 31.6994 44.8719C31.3354 46.7568 31.1031 48.6698 30.7894 50.7308C28.144 52.4012 28.1396 52.4057 25.6895 50.4882C25.2634 50.1553 24.932 49.6804 24.4807 49.3978C21.7243 47.6889 19.0242 45.8528 16.1317 44.4162C15.1685 43.9383 13.4508 44.107 12.4921 44.6825C8.66141 44.8719 8.73849 51.62 10.2136 54.2284C12.1163 57.5914 14.6729 60.4661 17.9471 62.5094C21.1518 64.5112 24.5221 66.2511 27.8422 68.0606C28.3778 68.3491 29.0406 68.4009 29.6887 68.5725C30.5616 65.973 31.328 63.4859 32.2275 61.0506C33.6405 57.2319 35.5269 53.7195 38.3439 50.6953C41.6803 47.1134 44.8391 43.3583 48.0141 39.6299C49.1373 38.2942 50.1755 36.8894 51.1226 35.4236C51.7944 34.3983 51.8432 33.1096 50.5885 32.6288ZM29.1353 2.5765C33.8358 -0.403274 36.712 0.667907 38.9002 5.71311C39.6222 7.37167 39.4551 8.8941 38.631 10.3292C37.832 11.723 36.9295 13.1108 35.8154 14.2648C30.8767 19.3943 27.3421 25.3509 24.5266 31.9452C22.001 32.0739 22.0528 29.4093 20.5718 28.1872C20.0332 28.1428 19.363 27.9579 18.7357 28.0511C15.2736 28.5645 13.0765 26.6159 11.307 24.2161C9.45458 21.7083 7.84189 19.023 6.26915 16.3332C4.16526 12.7394 6.25436 9.37347 10.5376 8.88523C14.2157 8.468 17.5003 8.84528 20.1442 11.6416C20.267 11.7703 20.5407 11.76 20.9757 11.8754C22.0913 10.2124 22.9612 8.56121 24.1715 7.20004C25.6658 5.51485 27.246 3.77344 29.1353 2.5765Z" fill="white"/>
</g>
<defs>
<clipPath id="clip0_55:83">
<rect width="56.2222" height="79.8947" fill="white"/>
</clipPath>
</defs>
</svg>
