<svg width="50" height="50" viewBox="0 0 50 50" fill="none" xmlns="http://www.w3.org/2000/svg">
<path fill-rule="evenodd" clip-rule="evenodd" d="M49.9656 35.5897C49.8939 31.7257 46.882 28.71 43.0203 28.6014C41.7675 28.5666 40.5132 28.5961 39.2589 28.5961C38.0062 28.5961 36.7519 28.5666 35.4991 28.6029C31.6789 28.713 28.6964 31.6752 28.6126 35.4939C28.5575 38.0002 28.5598 40.5095 28.6096 43.0158C28.6873 46.8745 31.7197 49.8872 35.5897 49.9589C38.0552 50.0057 40.5215 50.0087 42.9871 49.9581C46.8344 49.8804 49.8871 46.8292 49.9649 42.9864C50.0139 40.5231 50.0094 38.0553 49.9656 35.5897ZM46.3907 42.9682C46.3122 44.9953 44.8315 46.3598 42.7841 46.4066C40.4445 46.4594 38.1012 46.4632 35.7617 46.4058C33.5935 46.353 32.1944 44.8806 32.1536 42.7215C32.1317 41.5502 32.1491 40.3797 32.1491 39.2099C32.1506 38.0394 32.1249 36.8681 32.1574 35.6991C32.2125 33.6773 33.6305 32.2012 35.6342 32.1604C38.0575 32.1099 40.483 32.1106 42.9078 32.1589C44.8519 32.1974 46.3122 33.58 46.3892 35.5724C46.4858 38.0349 46.4865 40.5057 46.3907 42.9682Z" fill="white"/>
<path fill-rule="evenodd" clip-rule="evenodd" d="M28.5967 10.655C28.5967 11.8663 28.5801 13.0783 28.5997 14.2903C28.6669 18.3445 31.6026 21.33 35.6454 21.4077C38.0687 21.4538 40.495 21.4545 42.9175 21.4055C46.9309 21.3255 49.9225 18.2871 49.9693 14.273C49.9964 11.8904 50.0025 9.50939 49.9678 7.12611C49.9097 3.21534 46.8713 0.130953 42.9628 0.0441647C40.498 -0.0109271 38.031 -0.0116822 35.5662 0.044919C31.6894 0.136236 28.7016 3.15346 28.6042 7.01819C28.5748 8.2287 28.5997 9.44223 28.5997 10.6542C28.5982 10.655 28.5982 10.655 28.5967 10.655ZM32.1535 7.29289C32.195 5.17601 33.533 3.69456 35.6371 3.62211C38.0581 3.5391 40.4874 3.5391 42.9085 3.62136C44.9461 3.69079 46.3393 5.11488 46.4034 7.16912C46.4781 9.54939 46.4811 11.9357 46.4034 14.3152C46.3332 16.4796 44.845 17.8343 42.6572 17.8539C40.4007 17.8728 38.1434 17.875 35.8854 17.8539C33.5813 17.8313 32.1799 16.3951 32.1505 14.0639C32.1369 12.9779 32.1482 11.8904 32.1482 10.8044C32.149 9.63316 32.1316 8.46265 32.1535 7.29289Z" fill="white"/>
<path fill-rule="evenodd" clip-rule="evenodd" d="M6.81809 21.3896C9.40665 21.4696 12.0012 21.4673 14.5898 21.3949C18.4108 21.287 21.3238 18.2788 21.4091 14.442C21.437 13.2315 21.4136 12.018 21.4129 10.8059C21.4129 9.55317 21.4363 8.29888 21.4084 7.04535C21.3223 3.18062 18.3428 0.145291 14.4721 0.0486914C11.9665 -0.0131926 9.45646 -0.0199845 6.95015 0.0509556C3.20768 0.157366 0.176879 3.14138 0.0599036 6.85216C-0.0208475 9.44072 -0.018584 12.0346 0.0583936 14.6239C0.168577 18.3007 3.13825 21.2749 6.81809 21.3896ZM3.62804 6.9646C3.70276 5.10129 5.06722 3.72173 6.93506 3.64324C9.47985 3.53759 12.0367 3.52929 14.5792 3.65004C16.552 3.74362 17.8304 5.2477 17.8576 7.24987C17.8893 9.5909 17.8923 11.9312 17.8568 14.2714C17.8244 16.3657 16.3784 17.8018 14.2947 17.8509C13.0835 17.8811 11.8707 17.8569 10.6587 17.8569C9.52966 17.8592 8.40141 17.8766 7.27316 17.8554C5.21816 17.8147 3.70426 16.5045 3.62502 14.485C3.52616 11.9817 3.52767 9.46638 3.62804 6.9646Z" fill="white"/>
<path fill-rule="evenodd" clip-rule="evenodd" d="M21.4091 35.5482C21.32 31.725 18.3715 28.7047 14.5686 28.6119C12.0216 28.5485 9.46925 28.5485 6.9222 28.6119C3.13294 28.704 0.133829 31.7325 0.051569 35.5369C-0.00352285 38.0432 -0.00880543 40.5525 0.0538332 43.0603C0.146659 46.8398 3.18878 49.8691 6.97201 49.9574C9.47831 50.014 11.9876 50.0117 14.4939 49.9574C18.2968 49.8736 21.3012 46.8586 21.4053 43.0716C21.44 41.8181 21.4114 40.5638 21.4114 39.3103C21.4121 39.3103 21.4129 39.3103 21.4136 39.3103C21.4136 38.0553 21.4378 36.801 21.4091 35.5482ZM17.8575 42.7607C17.8274 44.855 16.4282 46.3379 14.3347 46.3998C11.9544 46.47 9.56963 46.4647 7.18785 46.4028C5.09964 46.3485 3.65895 44.8995 3.60386 42.8022C3.54273 40.4627 3.54349 38.1194 3.60235 35.7807C3.65744 33.5626 5.14794 32.1778 7.39538 32.1438C8.52363 32.128 9.65264 32.1416 10.7816 32.1416C11.9107 32.1416 13.0397 32.1235 14.1679 32.1461C16.3987 32.1899 17.8349 33.6215 17.8606 35.8629C17.8862 38.1624 17.8908 40.4627 17.8575 42.7607Z" fill="white"/>
</svg>
