<svg width="40" height="40" viewBox="0 0 40 40" fill="none" xmlns="http://www.w3.org/2000/svg">
<path d="M31.9997 16.4138C31.6549 16.4138 31.3101 16.2759 31.0342 16L23.9997 8.96552C23.448 8.41379 23.448 7.58621 23.9997 7.03448L30.6204 0.413793C31.1721 -0.137931 31.9997 -0.137931 32.5515 0.413793L39.5859 7.44828C40.1377 8 40.1377 8.82759 39.5859 9.37931L32.9653 16C32.6894 16.2759 32.3446 16.4138 31.9997 16.4138ZM26.8963 8L31.9997 13.1034L36.6894 8.41379L31.5859 3.31034L26.8963 8Z" fill="white"/>
<path d="M1.37931 40C1.03448 40 0.689655 39.8621 0.413793 39.5862C0.137931 39.3103 0 38.8966 0 38.4828L0.620689 30.8966C0.620689 30.5517 0.758621 30.2759 1.03448 30L20.1379 10.8966C20.6897 10.3448 21.5172 10.3448 22.069 10.8966L29.0345 17.931C29.5862 18.4828 29.5862 19.3103 29.0345 19.8621L9.93104 39.0345C9.72414 39.2414 9.37931 39.3793 9.03448 39.4483L1.44828 40H1.37931ZM3.31034 31.6552L2.89655 37.1724L8.34483 36.7586L26.1379 18.9655L21.0345 13.8621L3.31034 31.6552Z" fill="white"/>
</svg>
