<svg width="50" height="50" viewBox="0 0 50 50" fill="none" xmlns="http://www.w3.org/2000/svg">
<path fill-rule="evenodd" clip-rule="evenodd" d="M49.9665 35.5905C49.8948 31.7264 46.8828 28.7106 43.0211 28.602C41.7683 28.5672 40.5139 28.5967 39.2596 28.5967C38.0068 28.5967 36.7525 28.5672 35.4997 28.6035C31.6795 28.7136 28.6969 31.6758 28.6131 35.4946C28.558 38.001 28.5603 40.5103 28.6101 43.0167C28.6878 46.8754 31.7202 49.8882 35.5903 49.9599C38.0559 50.0067 40.5222 50.0097 42.9878 49.9591C46.8353 49.8814 49.8881 46.8302 49.9658 42.9872C50.0148 40.5239 50.0103 38.0561 49.9665 35.5905ZM46.3915 42.9691C46.313 44.9963 44.8323 46.3607 42.7848 46.4075C40.4453 46.4604 38.1019 46.4641 35.7624 46.4068C33.5941 46.354 32.1949 44.8815 32.1542 42.7223C32.1323 41.5511 32.1496 40.3805 32.1496 39.2107C32.1511 38.0402 32.1255 36.8689 32.1579 35.6999C32.213 33.678 33.6311 32.2019 35.6348 32.1611C38.0582 32.1105 40.4838 32.1113 42.9086 32.1596C44.8527 32.1981 46.313 33.5807 46.39 35.5731C46.4866 38.0357 46.4874 40.5066 46.3915 42.9691Z" fill="white"/>
<path fill-rule="evenodd" clip-rule="evenodd" d="M28.5976 10.6552C28.5976 11.8665 28.581 13.0786 28.6007 14.2906C28.6678 18.3448 31.6036 21.3304 35.6465 21.4082C38.0699 21.4542 40.4962 21.455 42.9188 21.4059C46.9323 21.3259 49.9239 18.2875 49.9707 14.2733C49.9979 11.8907 50.0039 9.5096 49.9692 7.12626C49.9111 3.21542 46.8727 0.130969 42.9641 0.0441789C40.4992 -0.0109141 38.0321 -0.0116692 35.5673 0.0449332C31.6904 0.136252 28.7025 3.15353 28.6052 7.01834C28.5758 8.22888 28.6007 9.44243 28.6007 10.6545C28.5992 10.6552 28.5992 10.6552 28.5976 10.6552ZM32.1545 7.29305C32.196 5.17612 33.5341 3.69465 35.6382 3.6222C38.0593 3.53918 40.4887 3.53919 42.9097 3.62145C44.9474 3.69088 46.3406 5.11499 46.4047 7.16928C46.4795 9.5496 46.4825 11.936 46.4047 14.3155C46.3346 16.48 44.8463 17.8347 42.6584 17.8543C40.4019 17.8732 38.1446 17.8754 35.8865 17.8543C33.5824 17.8317 32.1809 16.3955 32.1515 14.0642C32.1379 12.9782 32.1493 11.8907 32.1493 10.8047C32.15 9.63337 32.1326 8.46283 32.1545 7.29305Z" fill="white"/>
<path fill-rule="evenodd" clip-rule="evenodd" d="M6.81822 21.39C9.40684 21.47 12.0015 21.4678 14.5901 21.3953C18.4111 21.2874 21.3243 18.2792 21.4096 14.4423C21.4375 13.2318 21.4141 12.0182 21.4133 10.8062C21.4133 9.55336 21.4367 8.29905 21.4088 7.0455C21.3228 3.18069 18.3432 0.145294 14.4724 0.0486924C11.9668 -0.0131929 9.45665 -0.0199849 6.9503 0.0509567C3.20775 0.157369 0.176883 3.14145 0.0599048 6.8523C-0.0208479 9.44091 -0.0185844 12.0348 0.0583948 14.6242C0.168581 18.3011 3.13832 21.2753 6.81822 21.39ZM3.62812 6.96475C3.70283 5.1014 5.06733 3.72181 6.9352 3.64332C9.48004 3.53766 12.037 3.52936 14.5795 3.65011C16.5523 3.74369 17.8308 5.24781 17.8579 7.25002C17.8896 9.59109 17.8927 11.9314 17.8572 14.2717C17.8247 16.366 16.3787 17.8022 14.295 17.8513C13.0837 17.8815 11.8709 17.8573 10.6589 17.8573C9.52985 17.8596 8.40158 17.8769 7.27331 17.8558C5.21827 17.815 3.70434 16.5049 3.6251 14.4853C3.52623 11.982 3.52774 9.46657 3.62812 6.96475Z" fill="white"/>
<path fill-rule="evenodd" clip-rule="evenodd" d="M21.4098 35.5489C21.3207 31.7256 18.3721 28.7053 14.5692 28.6125C12.0221 28.5491 9.46969 28.5491 6.92258 28.6125C3.13325 28.7046 0.134076 31.7332 0.051814 35.5376C-0.00327895 38.044 -0.00856164 40.5533 0.0540783 43.0612C0.146906 46.8407 3.18909 49.8701 6.97239 49.9584C9.47875 50.015 11.9881 50.0127 14.4945 49.9584C18.2974 49.8746 21.3018 46.8596 21.406 43.0725C21.4407 41.819 21.412 40.5647 21.412 39.3111C21.4128 39.3111 21.4135 39.3111 21.4143 39.3111C21.4143 38.0561 21.4384 36.8017 21.4098 35.5489ZM17.8582 42.7616C17.828 44.8559 16.4288 46.3389 14.3352 46.4007C11.9549 46.4709 9.57006 46.4656 7.18824 46.4038C5.09999 46.3494 3.65927 44.9004 3.60418 42.8031C3.54305 40.4635 3.5438 38.1202 3.60267 35.7814C3.65776 33.5633 5.14829 32.1785 7.39578 32.1445C8.52405 32.1287 9.65308 32.1422 10.7821 32.1422C11.9111 32.1422 13.0402 32.1241 14.1684 32.1468C16.3993 32.1905 17.8355 33.6222 17.8612 35.8637C17.8868 38.1632 17.8914 40.4635 17.8582 42.7616Z" fill="white"/>
</svg>
