<svg width="50" height="50" viewBox="0 0 50 50" fill="none" xmlns="http://www.w3.org/2000/svg">
<path fill-rule="evenodd" clip-rule="evenodd" d="M46.2576 27.6536C47.707 27.6536 48.8819 26.4757 48.8819 25.0311V24.9689C48.8819 23.5206 47.7104 22.3465 46.2576 22.3465L30.2779 22.3465C28.8285 22.3465 27.6535 21.1749 27.6535 19.7221L27.6535 3.74238C27.6535 2.29301 26.4757 1.11807 25.0311 1.11807H24.9689C23.5206 1.11807 22.3465 2.28964 22.3465 3.74238L22.3465 19.7221C22.3465 21.1715 21.1749 22.3465 19.7221 22.3465L3.74238 22.3465C2.29301 22.3465 1.11807 23.5243 1.11807 24.9689V25.0311C1.11807 26.4794 2.28964 27.6536 3.74238 27.6536L19.7221 27.6536C21.1715 27.6536 22.3465 28.8251 22.3465 30.2779V46.2576C22.3465 47.707 23.5243 48.8819 24.9689 48.8819H25.0311C26.4794 48.8819 27.6535 47.7104 27.6535 46.2576V30.2779C27.6535 28.8285 28.8251 27.6536 30.2779 27.6536L46.2576 27.6536Z" fill="white"/>
</svg>
