<svg width="210" height="194" viewBox="0 0 210 194" fill="none" xmlns="http://www.w3.org/2000/svg">
<path d="M187.482 88.1142L187.58 88.0157C183.249 88.0814 178.983 89.0987 175.143 91.0348C176.128 86.2765 176.62 81.4198 176.62 76.5631C176.62 74.6598 175.078 73.1174 173.174 73.1174H35.3158C33.4125 73.1174 31.8701 74.6598 31.8701 76.5631C31.8045 93.9226 38.0395 110.724 49.4593 123.85C34.6267 126.541 22.1239 136.452 16.1186 150.267C7.75065 154.992 1.87665 163.131 0.0389718 172.549C-0.125106 173.632 0.235866 174.715 0.990626 175.469L18.5142 192.993C19.5971 194.076 21.2707 194.306 22.6161 193.584L45.3246 181.278L68.2627 176.487H98.4859L121.129 181.212L143.936 193.584C145.281 194.306 146.955 194.076 148.038 192.993L165.561 175.469C166.316 174.715 166.677 173.632 166.513 172.549C164.708 163.229 158.899 155.124 150.663 150.398C148.661 145.804 145.905 141.571 142.59 137.863C144.658 136.583 146.659 135.205 148.595 133.728L149.711 132.842C156.602 127.657 164.183 129.265 172.912 131.103C177.67 132.284 182.56 132.973 187.449 133.137C199.886 133.137 209.961 123.063 209.961 110.626C209.993 98.1886 199.919 88.1142 187.482 88.1142ZM21.4348 186.299L7.19278 171.893C8.96483 165.559 13.0668 160.112 18.6783 156.666L38.7614 176.946L21.4348 186.299ZM45.8168 174.19L23.1084 151.481C27.5057 142.555 36.2346 132.579 53.5941 130.053L63.6685 170.383L45.8168 174.19ZM96.1888 169.595H70.6254L59.9275 126.837C65.0468 118.928 73.8085 114.17 83.2266 114.137C92.6775 114.4 101.439 119.125 106.854 126.902L96.1888 169.595ZM159.392 171.893L159.293 171.925L144.92 186.299L127.725 176.979L147.939 156.765C153.551 160.177 157.62 165.592 159.392 171.893ZM143.64 151.481L120.965 174.19L103.08 170.383L113.155 130.053C130.514 132.579 139.276 142.555 143.64 151.481ZM137.438 132.842C130.251 127.263 121.621 123.818 112.564 122.964C105.902 113.251 94.9746 107.377 83.2266 107.147C72.5287 107.18 62.4215 112.135 55.8584 120.569C45.5871 109.444 39.549 95.1039 38.7286 79.9759H169.696C169.335 87.2938 167.727 94.4804 164.97 101.273C159.556 114.564 149.875 125.688 137.438 132.842ZM187.613 126.082L187.58 126.213C183.15 126.049 178.753 125.426 174.454 124.343C169.827 123.161 165.069 122.538 160.278 122.407C164.839 116.861 168.514 110.659 171.238 104.03C173.535 98.9433 180.623 94.8414 187.613 94.8414C196.244 94.8414 203.233 101.831 203.233 110.462C203.233 119.092 196.244 126.082 187.613 126.082Z" fill="black"/>
<path d="M98.0268 24.0581C93.0717 28.0944 86.9023 33.2464 86.9023 43.9115C87.0008 58.3504 100.783 64.7823 108.167 66.2262H108.823C110.726 66.3902 112.4 65.012 112.597 63.1087C112.761 61.2054 111.383 59.5318 109.48 59.3349C108.823 59.3349 93.8921 56.2502 93.8921 43.9115C93.8921 36.3639 97.7643 33.148 102.359 29.4726C106.46 26.1254 111.12 22.3188 111.12 15.3619C111.284 11.3584 109.775 7.45334 106.953 4.59838C103.507 1.54652 99.0441 -0.0942601 94.4499 0.00418682C92.5466 0.0370025 91.0371 1.61215 91.0699 3.51546C91.1027 5.41877 92.6779 6.92829 94.5812 6.89547C97.3377 6.89547 99.9958 7.81431 102.129 9.55354C103.606 11.0959 104.36 13.1961 104.196 15.3291C104.262 18.7747 101.998 20.8093 98.0268 24.0581Z" fill="black"/>
</svg>
