<svg width="80" height="58" viewBox="0 0 80 58" fill="none" xmlns="http://www.w3.org/2000/svg">
<path d="M18.5638 0.00187452C18.5638 0.00187452 11.8447 0.518468 7.97875 1.78728C7.63743 1.89981 7.34041 2.11767 7.13021 2.40965C6.92001 2.70164 6.80741 3.05278 6.80854 3.4128V9.46187C4.81462 10.221 2.83908 11.1234 0.904297 12.1533C0.6294 12.2995 0.399756 12.5184 0.240331 12.7862C0.0809045 13.054 -0.00220242 13.3604 4.4378e-05 13.6722V56.3088C0.00252319 56.6018 0.0802855 56.8892 0.225836 57.1433C0.371386 57.3975 0.579815 57.6097 0.831034 57.7597C1.08225 57.9096 1.36779 57.9922 1.66012 57.9995C1.95245 58.0067 2.24172 57.9384 2.50004 57.8011C8.38356 54.6694 14.4293 52.8496 20.3989 52.8979C20.4078 52.898 20.4167 52.898 20.4255 52.8979C27.677 52.8979 34.3147 54.7859 38.351 56.9217C38.5955 57.0573 38.8695 57.1305 39.1489 57.1349H40.851C41.1304 57.1305 41.4044 57.0573 41.6489 56.9217C45.6899 54.7834 52.3269 52.8712 59.5744 52.8712C59.5832 52.8713 59.5921 52.8713 59.6009 52.8712C65.5705 52.8226 71.6163 54.6427 77.4998 57.7745C77.7582 57.9118 78.0474 57.9801 78.3398 57.9728C78.6321 57.9656 78.9176 57.883 79.1688 57.733C79.4201 57.5831 79.6285 57.3708 79.774 57.1167C79.9196 56.8626 79.9974 56.5752 79.9998 56.2822V13.6456C80.003 13.4196 79.9613 13.1952 79.8772 12.9855C79.7931 12.7758 79.6683 12.5849 79.5099 12.424C79.3515 12.263 79.1628 12.1352 78.9547 12.048C78.7466 11.9608 78.5233 11.9159 78.2977 11.9159C78.0721 11.9159 77.8488 11.9608 77.6407 12.048C77.4326 12.1352 77.2439 12.263 77.0855 12.424C76.9272 12.5849 76.8023 12.7758 76.7182 12.9855C76.6341 13.1952 76.5924 13.4196 76.5956 13.6456V53.5907C71.0968 51.0089 65.3702 49.4183 59.5744 49.4603C59.5655 49.4604 59.5566 49.4602 59.5478 49.4603C54.3405 49.4662 49.5245 50.383 45.5052 51.6987C50.2638 49.1266 55.5686 47.7549 61.2765 47.7549C64.8108 47.7549 67.685 48.3064 70.9573 49.3804C71.2134 49.4648 71.4858 49.487 71.7522 49.4452C72.0185 49.4035 72.2712 49.2989 72.4893 49.1402C72.7075 48.9815 72.8848 48.7731 73.0069 48.5323C73.129 48.2914 73.1922 48.025 73.1913 47.7549V3.4128C73.1925 3.05278 73.0799 2.70164 72.8697 2.40965C72.6595 2.11767 72.3624 1.89981 72.0211 1.78728C68.5042 0.633032 65.1714 0.00187452 61.2765 0.00187452C53.4179 0.00187452 46.1463 2.5478 39.9999 6.93032C33.8538 2.54797 26.5824 0.00187452 18.7234 0.00187452C18.6702 -0.000624841 18.617 -0.000624841 18.5638 0.00187452ZM18.7234 3.4128C25.9808 3.4128 32.6085 5.79277 38.2978 9.94153V49.9666C32.5133 46.3175 25.8512 44.3439 18.7234 44.3439C15.6581 44.3439 12.945 44.8393 10.2128 45.5697V4.77184C13.3832 3.97942 18.4725 3.43732 18.7234 3.4128ZM61.2765 3.4128C64.3749 3.4128 66.99 3.91798 69.7871 4.7452V45.5697C67.0549 44.8393 64.3418 44.3439 61.2765 44.3439C54.1212 44.3439 47.5003 46.4238 41.7021 50.0999V9.99483C47.3955 5.83837 54.0111 3.4128 61.2765 3.4128ZM6.80854 13.1659V47.7549C6.81189 48.0227 6.87816 48.286 7.00198 48.5234C7.12581 48.7609 7.3037 48.9657 7.52126 49.1214C7.73882 49.2771 7.98992 49.3793 8.25422 49.4197C8.51853 49.46 8.7886 49.4374 9.04257 49.3537C12.3149 48.2798 15.189 47.7549 18.7234 47.7549C24.4734 47.7549 29.816 49.1239 34.601 51.7254C30.5603 50.3978 25.7016 49.4901 20.4521 49.487H20.4255C14.6296 49.4452 8.90304 51.0356 3.40429 53.6174V14.7648C4.53026 14.1925 5.67239 13.6586 6.80854 13.1659Z" fill="white"/>
</svg>
