<svg width="32" height="34" viewBox="0 0 32 34" fill="none" xmlns="http://www.w3.org/2000/svg">
<path d="M15.8195 10.9286C12.4717 10.9286 9.74805 13.6522 9.74805 17C9.74805 20.3478 12.4717 23.0714 15.8195 23.0714C19.1673 23.0714 21.8909 20.3478 21.8909 17C21.8909 13.6522 19.1673 10.9286 15.8195 10.9286ZM15.8195 20.6429C13.8106 20.6429 12.1766 19.0089 12.1766 17C12.1766 14.9912 13.8106 13.3572 15.8195 13.3572C17.8283 13.3572 19.4623 14.9912 19.4623 17C19.4623 19.0089 17.8283 20.6429 15.8195 20.6429Z" fill="white" fill-opacity="0.3"/>
<path d="M29.815 19.4719L29.1759 19.1031C28.4158 18.6644 27.9616 17.8783 27.9616 17C27.9616 16.1217 28.4158 15.3356 29.1759 14.8969L29.815 14.5281C31.5583 13.5211 32.1549 11.2957 31.1483 9.55198L29.934 7.44843C28.9298 5.70836 26.6971 5.11133 24.9579 6.11514L24.3188 6.48348C23.5582 6.92345 22.6495 6.92264 21.8902 6.48388C21.13 6.04472 20.6759 5.25826 20.6759 4.38074V3.64286C20.6759 1.63402 19.0419 0 17.033 0H14.6045C12.5956 0 10.9616 1.63402 10.9616 3.64286V4.38114C10.9616 5.25867 10.5075 6.04472 9.74732 6.48429C8.98718 6.92305 8.07889 6.92345 7.31875 6.48388L6.67963 6.11514C4.94118 5.11133 2.70811 5.70836 1.70349 7.44843L0.4892 9.55198C-0.517038 11.2957 0.0791763 13.5211 1.82249 14.5281L2.46161 14.8969C3.22175 15.3356 3.67589 16.1217 3.67589 17C3.67589 17.8783 3.22175 18.6644 2.46161 19.1031L1.82249 19.4719C0.0791763 20.4789 -0.517443 22.7043 0.4892 24.448L1.70349 26.5516C2.70851 28.2912 4.94158 28.8895 6.67963 27.8849L7.31875 27.5165C8.07889 27.0762 8.98718 27.0778 9.74732 27.5161C10.5075 27.9553 10.9616 28.7417 10.9616 29.6193V30.3572C10.9616 32.366 12.5956 34 14.6045 34H17.033C19.0419 34 20.6759 32.366 20.6759 30.3572V29.6189C20.6759 28.7413 21.13 27.9553 21.8902 27.5157C22.6495 27.0774 23.5582 27.0757 24.3188 27.5161L24.9579 27.8849C26.6967 28.8883 28.9298 28.2908 29.934 26.5516L31.1483 24.448C32.1549 22.7043 31.5587 20.4793 29.815 19.4719ZM29.0448 23.2337L27.8305 25.3373C27.4937 25.9222 26.7453 26.1157 26.1722 25.7813L25.533 25.413C24.0115 24.5355 22.1962 24.5355 20.6759 25.413C19.1552 26.2909 18.2473 27.8634 18.2473 29.6193V30.3572C18.2473 31.0266 17.7025 31.5714 17.033 31.5714H14.6045C13.935 31.5714 13.3902 31.0266 13.3902 30.3572V29.6189C13.3902 27.8634 12.4823 26.2909 10.9616 25.4126C9.44132 24.5351 7.62475 24.5351 6.10446 25.4126L5.46534 25.7813C4.88654 26.1185 4.14137 25.9177 3.80703 25.3373L2.59275 23.2337C2.25234 22.6448 2.46444 21.9049 3.03677 21.5754L3.67589 21.2067C5.19658 20.3288 6.10446 18.7563 6.10446 17C6.10446 15.2437 5.19658 13.6712 3.67589 12.7933L3.03677 12.4246C2.46444 12.0951 2.25234 11.3552 2.59275 10.7663L3.80703 8.66272C4.14865 8.06974 4.9007 7.89043 5.46534 8.21869L6.10446 8.58703C7.62596 9.46455 9.44132 9.46455 10.9616 8.58703C12.4823 7.7091 13.3902 6.1366 13.3902 4.38074V3.64286C13.3902 2.97338 13.935 2.42857 14.6045 2.42857H17.033C17.7025 2.42857 18.2473 2.97338 18.2473 3.64286V4.38114C18.2473 6.1366 19.1552 7.7091 20.6759 8.58743C22.1962 9.46496 24.0128 9.46496 25.533 8.58743L26.1722 8.21869C26.7461 7.88719 27.4925 8.07581 27.8305 8.66272L29.0448 10.7663C29.3852 11.3552 29.1731 12.0951 28.6007 12.4246L27.9616 12.7933C26.4409 13.6712 25.533 15.2437 25.533 17C25.533 18.7563 26.4409 20.3288 27.9616 21.2067L28.6007 21.5754C29.1731 21.9053 29.3852 22.6448 29.0448 23.2337Z" fill="white" fill-opacity="0.3"/>
</svg>
