<svg width="47" height="47" viewBox="0 0 47 47" fill="none" xmlns="http://www.w3.org/2000/svg">
<path d="M46.219 42.5514L34.6924 31.011C40.4879 23.4678 39.9084 12.572 32.9538 5.67353C29.1545 1.86968 24.2606 0 19.3022 0C14.3438 0 9.44987 1.86968 5.6506 5.67353C-1.88353 13.2167 -1.88353 25.4664 5.6506 33.0096C9.44987 36.8134 14.3438 38.6831 19.3022 38.6831C23.4234 38.6831 27.5447 37.3937 30.9576 34.7503L42.5486 46.2263C43.0637 46.7421 43.7076 47 44.416 47C45.0599 47 45.7683 46.7421 46.2834 46.2263C47.2493 45.2593 47.2493 43.583 46.219 42.5514ZM19.3666 33.4609C15.5673 33.4609 12.09 31.9781 9.38547 29.3347C3.91195 23.8546 3.91195 14.893 9.38547 9.34842C12.0256 6.70508 15.5673 5.22222 19.3666 5.22222C23.1659 5.22222 26.6432 6.70508 29.3477 9.34842C32.0523 11.9918 33.4689 15.5377 33.4689 19.3416C33.4689 23.1454 31.9879 26.6269 29.3477 29.3347C26.7075 32.0425 23.1015 33.4609 19.3666 33.4609Z" fill="white"/>
</svg>
