<svg width="132" height="136" viewBox="0 0 132 136" fill="none" xmlns="http://www.w3.org/2000/svg">
<path d="M104.701 68.6505H31.9008C30.9578 68.6505 30.0148 68.0847 29.449 67.1417C28.8832 66.1987 28.8832 65.2557 29.449 64.3127L65.8489 1.3202C66.4147 0.3772 67.3577 0 68.3007 0C69.2437 0 70.1867 0.5658 70.7525 1.3202L107.152 64.3127C107.718 65.2557 107.718 66.1987 107.152 67.1417C106.587 68.0847 105.644 68.6505 104.701 68.6505ZM36.8044 62.9925H99.7969L68.3007 8.48701L36.8044 62.9925Z" fill="white"/>
<path d="M128.653 135.415H71.8841C70.3753 135.415 69.0551 134.095 69.0551 132.586V75.8173C69.0551 74.3085 70.3753 72.9883 71.8841 72.9883H128.653C130.162 72.9883 131.482 74.3085 131.482 75.8173V132.586C131.482 134.095 130.162 135.415 128.653 135.415ZM74.7131 129.757H125.824V78.6463H74.7131V129.757Z" fill="white"/>
<path d="M31.9008 135.226C14.7382 135.226 0.781738 121.27 0.781738 104.107C0.781738 86.9447 14.7382 72.9883 31.9008 72.9883C49.0634 72.9883 63.0198 86.9447 63.0198 104.107C63.0198 121.27 49.0634 135.226 31.9008 135.226ZM31.9008 78.6463C17.9444 78.6463 6.43975 90.1509 6.43975 104.107C6.43975 118.064 17.9444 129.568 31.9008 129.568C45.8572 129.568 57.3618 118.064 57.3618 104.107C57.3618 90.1509 45.8572 78.6463 31.9008 78.6463Z" fill="white"/>
</svg>
