<svg width="25" height="25" viewBox="0 0 25 25" fill="none" xmlns="http://www.w3.org/2000/svg">
<path d="M23.0483 8.29022H19.9245C19.2715 8.29022 18.7425 8.81964 18.7425 9.47216C18.7425 10.1247 19.2715 10.6541 19.9245 10.6541H21.8663V22.0536H2.36392V10.6541H4.30577C4.95869 10.6541 5.48775 10.1247 5.48775 9.47216C5.48775 8.81964 4.95869 8.29022 4.30577 8.29022H1.18193C0.529015 8.29022 0 8.81964 0 9.47216V23.2356C0 23.8881 0.529024 24.4176 1.18193 24.4176H23.0483C23.7012 24.4176 24.2302 23.8881 24.2302 23.2356V9.47216C24.2302 8.81964 23.7012 8.29022 23.0483 8.29022Z" fill="black"/>
<path d="M13.2978 18.6393C13.2978 18.6394 13.2978 4.02565 13.2978 4.02565L15.8767 6.60427C16.9906 7.68382 18.6298 6.05047 17.5481 4.93291L12.9515 0.336634C12.6253 0.0234128 12.1232 -0.0862711 11.6986 0.071605C11.7598 -0.28429 6.7409 4.92661 6.68338 4.93287C5.60488 6.04894 7.23639 7.68492 8.35489 6.60423C8.35484 6.60428 10.9338 4.02547 10.9338 4.02547V18.6394C10.9574 20.184 13.2707 20.2 13.2978 18.6393Z" fill="black"/>
</svg>
